<svg width="90" height="90" viewBox="0 0 90 90" fill="none" xmlns="http://www.w3.org/2000/svg">
<g clip-path="url(#clip0_9_315)">
<circle cx="45" cy="45" r="45" fill="#E6F2FF"/>
<path fill-rule="evenodd" clip-rule="evenodd" d="M56.2635 25.4603C58.6195 23.0454 62.2876 22.9972 64.6445 25.4131C66.9819 27.8089 66.9368 31.5095 64.5984 33.9064L57.7203 40.9563L62.6185 58.8914C62.7469 59.3618 62.6167 59.8649 62.2763 60.2139L57.9704 64.6274C57.6653 64.9402 57.2296 65.0893 56.7967 65.0291C56.3639 64.9688 55.9854 64.7064 55.7773 64.3222L48.3318 50.5796L42.4921 56.5653L43.3901 61.332C43.4731 61.7725 43.3361 62.2259 43.023 62.5467L38.7172 66.9602C38.4041 67.2812 37.9541 67.4293 37.5116 67.3571C37.069 67.2849 36.6895 67.0014 36.4946 66.5976L32.4831 58.2838L24.3783 54.1751C23.9879 53.9772 23.7151 53.6053 23.6435 53.1736C23.572 52.7418 23.7102 52.3018 24.0158 51.9885L28.3217 47.575C28.6462 47.2424 29.1169 47.0962 29.5728 47.1864L34.1781 48.0978L40.0574 42.0716L26.5958 34.4091C26.2256 34.1984 25.9739 33.828 25.9144 33.4062C25.8549 32.9844 25.9943 32.5589 26.2918 32.2539L30.5976 27.8405C30.9509 27.4783 31.4747 27.3394 31.961 27.479L49.4096 32.4855L56.2635 25.4603ZM62.6761 27.3334C61.4253 26.0514 59.5358 26.0442 58.2319 27.3807L50.8043 34.994C50.4509 35.3562 49.9272 35.495 49.4409 35.3555L31.9923 30.3489L29.5035 32.8999L42.9651 40.5624C43.3353 40.7731 43.5869 41.1435 43.6464 41.5653C43.7059 41.9871 43.5665 42.4127 43.2691 42.7176L35.6262 50.5515C35.3017 50.8842 34.831 51.0304 34.3751 50.9402L29.7698 50.0287L27.2916 52.5688L34.1412 56.0412C34.4101 56.1776 34.6268 56.3985 34.7578 56.6701L38.1188 63.6356L40.5552 61.1383L39.6573 56.3715C39.5743 55.931 39.7113 55.4776 40.0243 55.1568L47.6672 47.3228C47.9723 47.01 48.408 46.8609 48.8409 46.9212C49.2737 46.9814 49.6522 47.2438 49.8603 47.628L57.3058 61.3706L59.7583 58.8568L54.8602 40.9217C54.7317 40.4514 54.8619 39.9482 55.2024 39.5992L62.63 31.986C63.9515 30.6314 63.9464 28.6355 62.6761 27.3334Z" fill="#1787FF"/>
</g>
<defs>
<clipPath id="clip0_9_315">
<rect width="90" height="90" fill="white"/>
</clipPath>
</defs>
</svg>
