<svg width="90" height="90" viewBox="0 0 90 90" fill="none" xmlns="http://www.w3.org/2000/svg">
<g clip-path="url(#clip0_9_294)">
<circle cx="45" cy="45" r="45" fill="#E6F2FF"/>
<path fill-rule="evenodd" clip-rule="evenodd" d="M47.7051 26.375C44.9145 26.375 42.6895 28.5961 42.6895 31.2903C42.6895 33.9845 44.9145 36.2056 47.7051 36.2056C50.4958 36.2056 52.7208 33.9845 52.7208 31.2903C52.7208 28.5961 50.4958 26.375 47.7051 26.375ZM39.9395 31.2903C39.9395 27.0365 43.4369 23.625 47.7051 23.625C51.9734 23.625 55.4708 27.0365 55.4708 31.2903C55.4708 35.0567 52.729 38.1627 49.138 38.8251C49.2838 38.9682 49.4197 39.107 49.5438 39.2375C50.6593 38.6386 51.709 38.1563 52.4989 37.8164C52.9262 37.6326 53.2801 37.4893 53.5305 37.3907L59.6863 28.6049L59.693 28.5957L60.8059 29.4032C59.693 28.5957 59.6935 28.5951 59.6939 28.5944L59.6949 28.5931L59.6969 28.5904L59.7014 28.5842L59.7125 28.5694C59.7207 28.5585 59.7308 28.5454 59.7425 28.5304C59.766 28.5004 59.7967 28.4625 59.8345 28.4183C59.9098 28.3301 60.0146 28.2151 60.1487 28.0865C60.4147 27.8314 60.8095 27.5093 61.3317 27.2388C62.4215 26.6742 63.9753 26.3884 65.8304 27.2C66.7501 27.6023 67.4321 28.1605 67.8625 28.8583C68.2927 29.5557 68.401 30.2782 68.37 30.8883C68.3397 31.4856 68.1762 31.997 68.0342 32.343C67.9615 32.5202 67.8896 32.6657 67.8332 32.7712C67.8089 32.8167 67.7872 32.8554 67.7691 32.8866L67.6859 33.0583C67.6144 33.2058 67.5089 33.4233 67.373 33.7032C67.1012 34.2628 66.7077 35.072 66.2205 36.0705C65.2461 38.0673 63.897 40.8217 62.3978 43.8517C59.4032 49.9041 55.7973 57.0821 53.3863 61.5121C52.6366 62.8895 51.6432 63.894 50.3576 64.5311C49.099 65.155 47.6642 65.375 46.1075 65.375H24.0415L23.9654 64.0807L25.338 64C23.9654 64.0807 23.9654 64.081 23.9654 64.0807L23.9652 64.0777L23.9649 64.0726L23.964 64.0562L23.9612 63.9994C23.959 63.9512 23.9561 63.8824 23.9531 63.7953C23.9473 63.6211 23.9415 63.3729 23.9408 63.0677C23.9395 62.459 23.9588 61.6155 24.0423 60.6765C24.0777 60.2783 24.1256 59.8492 24.1915 59.4038C23.9141 59.2334 23.5917 59.0209 23.2766 58.7796C22.8704 58.4685 22.3786 58.0365 22.0432 57.5136C21.7021 56.9817 21.3613 56.0616 21.9184 55.1215C24.3487 51.0208 28.1358 48.6725 30.4155 47.3903C31.18 46.9603 32.0983 46.9964 32.7239 47.0508C33.1269 47.0859 33.625 47.1572 34.0972 47.2248C34.376 47.2647 34.6458 47.3034 34.8817 47.3325C36.4032 47.5202 37.4948 47.4637 38.2203 46.8848C38.4665 46.6884 38.7548 46.3229 39.0426 45.875H31.1682L30.9417 45.7931L31.4091 44.5C30.9417 45.7931 30.9405 45.7927 30.9393 45.7922L30.9369 45.7914L30.932 45.7895L30.9219 45.7858L30.9006 45.7775C30.8859 45.7717 30.8702 45.7653 30.8537 45.7581C30.8206 45.7438 30.7839 45.7267 30.7443 45.7064C30.6648 45.6656 30.5735 45.612 30.4751 45.542C30.2765 45.4009 30.0567 45.1986 29.8507 44.9152C29.4332 44.3408 29.1311 43.5164 29.077 42.3628C29.0197 41.1396 29.3318 40.2291 29.7373 39.5933C29.9349 39.2834 30.1444 39.0549 30.3192 38.8951C30.4066 38.8152 30.4856 38.7523 30.5507 38.7045C30.5833 38.6805 30.6126 38.6603 30.6378 38.6436C30.6504 38.6352 30.6621 38.6278 30.6726 38.6211L30.6876 38.6117L30.6945 38.6075L30.6978 38.6055L30.6994 38.6045C30.7002 38.6041 30.701 38.6036 31.4091 39.7823L31.2596 38.4154L31.3553 38.4048C31.4187 38.3978 31.5127 38.3873 31.6342 38.3736C31.877 38.3461 32.2295 38.3058 32.6666 38.2545C33.5411 38.1518 34.7534 38.005 36.1043 37.8291C38.1371 37.5642 40.4567 37.2365 42.4084 36.8958C40.8916 35.4998 39.9395 33.5097 39.9395 31.2903ZM31.4091 39.7823L31.2596 38.4154L30.9597 38.4482L30.701 38.6036L31.4091 39.7823ZM32.0417 41.095C31.9444 41.2565 31.7944 41.6019 31.824 42.234C31.8452 42.6866 31.9208 42.9652 31.9849 43.125H43.381L42.5828 45.0311L41.3145 44.5C42.5828 45.0311 42.5829 45.0309 42.5828 45.0311L42.5809 45.0356L42.5775 45.0437L42.566 45.0706C42.5564 45.0931 42.5427 45.1247 42.5253 45.1643C42.4904 45.2433 42.4404 45.3548 42.3769 45.4905C42.2504 45.7608 42.0681 46.1328 41.8444 46.539C41.4282 47.295 40.7591 48.3773 39.9353 49.0345C38.2297 50.3953 36.0487 50.2474 34.5449 50.0618C34.1719 50.0157 33.8546 49.9695 33.566 49.9274C33.1756 49.8704 32.8377 49.8211 32.4856 49.7905C32.0113 49.7492 31.8171 49.7822 31.769 49.7903C31.7535 49.793 31.7532 49.793 31.7636 49.7871C29.6416 50.9807 26.5381 52.9425 24.4882 56.1901C24.5807 56.2893 24.7122 56.4105 24.8856 56.5473C25.1247 55.8944 25.4259 55.2716 25.8062 54.7239C26.8884 53.1651 28.5685 52.249 30.2907 51.7069C32.0222 51.1619 33.9322 50.9511 35.6664 50.8985C37.4098 50.8457 39.0335 50.9514 40.2168 51.069C40.4899 51.0962 40.7405 51.124 40.9647 51.1509C41.0781 50.7669 41.2157 50.3077 41.3698 49.8064C41.8016 48.4013 42.373 46.6309 42.9096 45.2576C43.43 43.9259 44.4674 42.7844 45.5766 41.8509C46.0626 41.4418 46.5831 41.0556 47.1159 40.6946C46.9949 40.5783 46.8676 40.4604 46.7357 40.3443C46.3032 39.9636 45.8634 39.6395 45.4655 39.4371C45.0444 39.223 44.84 39.2308 44.7936 39.2406C42.4988 39.7246 39.1758 40.2021 36.4596 40.556C35.0944 40.7339 33.8703 40.882 32.9874 40.9857C32.6017 41.031 32.2809 41.0678 32.0417 41.095ZM41.7148 54.0316L41.6948 54.0282C41.676 54.0251 41.6466 54.0203 41.6071 54.014C41.5281 54.0015 41.409 53.9833 41.2546 53.9616C40.9455 53.918 40.4961 53.8603 39.9448 53.8055C38.8387 53.6956 37.3396 53.5991 35.7497 53.6473C34.1505 53.6958 32.5166 53.8893 31.1164 54.33C29.7069 54.7737 28.6675 55.4246 28.0652 56.2922C27.3182 57.3681 26.9367 59.1744 26.7815 60.92C26.7253 61.552 26.7016 62.1391 26.6938 62.625H46.1075C47.4265 62.625 48.3947 62.4348 49.1364 62.0672C49.8511 61.7129 50.4553 61.1448 50.9709 60.1975C53.3528 55.8211 56.9363 48.6886 59.933 42.6322C61.4294 39.6078 62.7762 36.8581 63.749 34.8645C64.2354 33.8678 64.6282 33.0601 64.8993 32.5018C65.0349 32.2227 65.14 32.0058 65.2113 31.8589L65.3193 31.6359C65.3193 31.6358 65.3197 31.6351 66.5574 32.2339L65.3193 31.6359L65.3542 31.5637L65.39 31.5073C65.393 31.5022 65.3992 31.4913 65.4077 31.4754C65.4274 31.4384 65.4579 31.3775 65.49 31.2992C65.5578 31.1341 65.614 30.9378 65.6236 30.7488C65.6325 30.5727 65.601 30.4302 65.522 30.302C65.4431 30.1742 65.2464 29.9461 64.7282 29.7194C63.7076 29.2729 63.0246 29.4589 62.5967 29.6806C62.36 29.8032 62.1757 29.9529 62.0522 30.0713C61.9916 30.1294 61.9491 30.1767 61.9258 30.2039C61.9207 30.21 61.9165 30.215 61.9134 30.2188L55.293 39.6677L54.8867 39.8158L54.8836 39.817L54.8689 39.8224L54.8042 39.8467C54.746 39.8687 54.6582 39.9023 54.5446 39.9469C54.3174 40.0363 53.9877 40.1696 53.5858 40.3425C52.7797 40.6894 51.6937 41.191 50.5651 41.8124C49.4311 42.4367 48.2872 43.1638 47.3474 43.9548C46.3896 44.761 45.7495 45.5458 45.471 46.2585C44.9735 47.5319 44.4265 49.2212 43.9985 50.6141C43.7859 51.306 43.6052 51.9163 43.4777 52.3535C43.4139 52.5719 43.3636 52.7469 43.3293 52.8669L43.2902 53.004L43.2773 53.0495L42.941 54.2444L41.7184 54.0322L41.7148 54.0316ZM26.2727 57.4234C26.2728 57.4235 26.2729 57.4236 26.2727 57.4234Z" fill="#1787FF"/>
</g>
<defs>
<clipPath id="clip0_9_294">
<rect width="90" height="90" fill="white"/>
</clipPath>
</defs>
</svg>
