<svg width="90" height="90" viewBox="0 0 90 90" fill="none" xmlns="http://www.w3.org/2000/svg">
<g clip-path="url(#clip0_9_288)">
<circle cx="45" cy="45" r="45" fill="#E6F2FF"/>
<path fill-rule="evenodd" clip-rule="evenodd" d="M32.5362 26.7919C32.1169 27.1066 31.6893 27.5748 31.3161 28.1363C29.0861 31.4904 27.0788 35.1379 25.6338 38.2999C24.9113 39.8812 24.3374 41.3234 23.947 42.534C23.5463 43.7766 23.375 44.6671 23.375 45.1875V61.2187C23.375 61.388 23.4337 61.5262 23.4885 61.5955C23.5009 61.6111 23.5106 61.6202 23.5163 61.625H27.75C27.7526 61.625 27.7851 61.6238 27.8444 61.5967C27.9037 61.5695 27.9718 61.5242 28.0354 61.4617C28.0992 61.3992 28.1431 61.3346 28.1681 61.282C28.1873 61.2417 28.1904 61.2195 28.1908 61.2164V57.9531C28.1908 57.1937 28.8064 56.5781 29.5658 56.5781H60.7368C61.4962 56.5781 62.1118 57.1937 62.1118 57.9531V61.2187C62.1118 61.388 62.1705 61.5262 62.2254 61.5955C62.2378 61.6111 62.2474 61.6202 62.2532 61.625H66.4837C66.4894 61.6202 66.4991 61.6111 66.5115 61.5955C66.5663 61.5262 66.625 61.388 66.625 61.2187V45.3002C66.0469 41.8381 64.9859 39.3406 63.6153 36.8285C63.0611 35.8126 62.4631 34.8062 61.8172 33.7192C61.6429 33.426 61.4651 33.1268 61.2838 32.82C60.437 31.3872 59.5311 29.8185 58.6039 27.9994C58.3006 27.4044 57.9577 27.011 57.5945 26.7646C57.2426 26.5258 56.7993 26.3751 56.1972 26.375H33.5C33.2928 26.375 32.9645 26.4705 32.5362 26.7919ZM30.8855 24.5924C31.5995 24.0566 32.4967 23.625 33.5 23.625L56.1975 23.625C57.2999 23.6251 58.2913 23.9141 59.1385 24.4889C59.9744 25.056 60.595 25.85 61.054 26.7506C61.9426 28.494 62.8147 30.0054 63.6512 31.4207C63.8241 31.7133 63.9964 32.0032 64.1674 32.2909C64.8171 33.3842 65.4486 34.4468 66.0294 35.5114C67.5195 38.2425 68.7204 41.0629 69.3571 44.9661C69.369 45.0393 69.375 45.1133 69.375 45.1875V61.2187C69.375 62.5666 68.4515 64.375 66.4868 64.375H62.25C60.2853 64.375 59.3618 62.5666 59.3618 61.2187V59.3281H30.9408V61.2187C30.9408 62.1206 30.4956 62.9006 29.9613 63.4248C29.4253 63.9507 28.6419 64.375 27.75 64.375H23.5132C21.5485 64.375 20.625 62.5666 20.625 61.2187V45.1875C20.625 44.2235 20.9077 42.9987 21.3297 41.69C21.7621 40.3493 22.3799 38.8042 23.1326 37.157C24.6383 33.8619 26.7165 30.0876 29.026 26.6137C29.5309 25.8543 30.1625 25.135 30.8855 24.5924ZM38.7523 32.455H40.4C41.1594 32.455 41.775 31.8394 41.775 31.08C41.775 30.3206 41.1594 29.705 40.4 29.705H36.7512C36.7301 29.7045 36.7091 29.7045 36.688 29.705H35.8C35.0406 29.705 34.425 30.3206 34.425 31.08C34.425 31.8359 35.035 32.4494 35.7897 32.4549L37.0536 35.6089L35.2521 39.2054C34.5506 38.999 33.8082 38.8883 33.04 38.8883C28.7262 38.8883 25.225 42.3796 25.225 46.6916C25.225 51.0036 28.7262 54.495 33.04 54.495C36.8423 54.495 40.0134 51.7824 40.7118 48.1862L40.9181 48.9067C41.0601 49.403 41.4683 49.7779 41.9749 49.8775C42.4815 49.977 43.0011 49.7844 43.3204 49.3788L51.8634 38.5256L52.4597 40.3113C50.455 41.7235 49.145 44.054 49.145 46.6916C49.145 51.0036 52.6462 54.495 56.96 54.495C61.2737 54.495 64.775 51.0036 64.775 46.6916C64.775 42.3796 61.2737 38.8883 56.96 38.8883C56.2721 38.8883 55.6048 38.9771 54.9691 39.1438L53.6642 35.2361C53.6436 35.1743 53.6186 35.1141 53.5894 35.0558L53.5041 34.8855L55.585 34.5393V35.6716C55.585 36.431 56.2006 37.0466 56.96 37.0466C57.7194 37.0466 58.335 36.431 58.335 35.6716V32.9166C58.335 32.5125 58.1572 32.1289 57.8489 31.8676C57.5406 31.6064 57.133 31.494 56.7343 31.5603L51.2143 32.4786C50.7837 32.5503 50.4126 32.8222 50.2146 33.2113C50.0421 33.5502 50.0187 33.943 50.1448 34.2966H39.4903L38.7523 32.455ZM38.2091 39.4423L37.7116 40.4355C38.09 40.7176 38.4419 41.0332 38.7631 41.3778L38.2091 39.4423ZM34.6208 41.8892C34.7506 42.1059 34.9416 42.2895 35.1842 42.411C35.4276 42.533 35.69 42.5759 35.9421 42.5494C37.2503 43.4636 38.105 44.9788 38.105 46.6916C38.105 49.4802 35.8397 51.745 33.04 51.745C30.2403 51.745 27.975 49.4802 27.975 46.6916C27.975 43.9031 30.2403 41.6383 33.04 41.6383C33.5922 41.6383 34.1235 41.7264 34.6208 41.8892ZM40.3838 37.0466H49.5278L42.8222 45.5656L40.3838 37.0466ZM54.0577 42.5496C54.2469 42.5694 54.4433 42.55 54.6355 42.4858C54.9593 42.3777 55.2162 42.1608 55.3789 41.8893C55.8763 41.7264 56.4078 41.6383 56.96 41.6383C59.7597 41.6383 62.025 43.9031 62.025 46.6916C62.025 49.4802 59.7597 51.745 56.96 51.745C54.1603 51.745 51.895 49.4802 51.895 46.6916C51.895 44.9789 52.7496 43.4637 54.0577 42.5496Z" fill="#1787FF"/>
</g>
<defs>
<clipPath id="clip0_9_288">
<rect width="90" height="90" fill="white"/>
</clipPath>
</defs>
</svg>
