<svg xmlns="http://www.w3.org/2000/svg" width="34" height="34" fill="none"><path stroke="#1E88E5" stroke-linecap="round" stroke-linejoin="round" stroke-miterlimit="10" stroke-width="1.2" d="M2.833 14.167h28.334"/><path stroke="#1E88E5" stroke-linecap="round" stroke-linejoin="round" stroke-width="1.2" d="M16.36 29.041H9.12c-5.028 0-6.303-1.246-6.303-6.219V11.177c0-4.505 1.048-5.95 5-6.176.397-.015.836-.029 1.304-.029h15.74c5.028 0 6.303 1.247 6.303 6.22v6.247"/><path stroke="#1E88E5" stroke-linecap="round" stroke-linejoin="round" stroke-miterlimit="10" stroke-width="1.2" d="M8.5 22.667h5.667M31 25.5a5.392 5.392 0 0 1-.797 2.832A5.458 5.458 0 0 1 25.5 31a5.458 5.458 0 0 1-4.703-2.668A5.392 5.392 0 0 1 20 25.5c0-3.039 2.461-5.5 5.5-5.5s5.5 2.461 5.5 5.5ZM29 22l-7 7"/></svg>