<svg xmlns="http://www.w3.org/2000/svg" width="34" height="34" fill="none"><path stroke="#1E88E5" stroke-linecap="round" stroke-linejoin="round" stroke-miterlimit="10" stroke-width="1.2" d="M2.833 17.864h24.084"/><path stroke="#1E88E5" stroke-linecap="round" stroke-linejoin="round" stroke-width="1.2" d="M26.917 14.563v10.13c-.043 4.037-1.148 5.057-5.355 5.057H8.188c-4.278 0-5.355-1.062-5.355-5.284v-9.903c0-3.825.893-5.057 4.25-5.255.34-.015.709-.029 1.105-.029h13.374c4.278 0 5.355 1.063 5.355 5.284Z"/><path stroke="#1E88E5" stroke-linecap="round" stroke-linejoin="round" stroke-width="1.2" d="M31.167 9.534v9.903c0 3.825-.893 5.057-4.25 5.255V14.563c0-4.221-1.077-5.284-5.355-5.284H8.188c-.396 0-.765.014-1.105.028.043-4.037 1.148-5.057 5.355-5.057h13.374c4.278 0 5.355 1.063 5.355 5.284Z"/><path stroke="#1E88E5" stroke-linecap="round" stroke-linejoin="round" stroke-miterlimit="10" stroke-width="1.2" d="M7.438 25.231h2.436M12.906 25.231h4.873"/><path fill="#F2F9FF" stroke="#1E88E5" stroke-linecap="round" stroke-linejoin="round" stroke-miterlimit="10" stroke-width="1.2" d="M32.474 26.808a5.554 5.554 0 0 1-.821 2.918 5.624 5.624 0 0 1-4.845 2.748 5.624 5.624 0 0 1-4.845-2.748 5.554 5.554 0 0 1-.822-2.918 5.665 5.665 0 0 1 5.667-5.667 5.665 5.665 0 0 1 5.666 5.667Z"/><path stroke="#1E88E5" stroke-linecap="round" stroke-linejoin="round" stroke-width="1.2" d="m24.6 26.807 1.402 1.402 3.018-2.79"/></svg>