<svg width="90" height="90" viewBox="0 0 90 90" fill="none" xmlns="http://www.w3.org/2000/svg">
<g clip-path="url(#clip0_9_318)">
<circle cx="45" cy="45" r="45" fill="#E6F2FF"/>
<path fill-rule="evenodd" clip-rule="evenodd" d="M55.2048 26.6782C55.9348 26.8873 56.3571 27.6487 56.1479 28.3787C55.6986 29.9468 54.37 30.6219 53.4811 30.9039C53.0133 31.0523 52.5781 31.1236 52.2652 31.1588C52.1066 31.1767 51.9736 31.1859 51.8763 31.1907C51.8275 31.1931 51.7873 31.1944 51.7568 31.1951L51.7186 31.1958L51.7052 31.1959L51.6999 31.1959L51.6966 31.1959C51.6961 31.1959 51.6957 31.1959 51.6957 29.8209L51.6966 31.1959L48.375 31.1959V33.3513H48.8261C49.6225 33.3513 50.3439 33.4732 51.0238 33.7934C51.6952 34.1095 52.2263 34.5725 52.7079 35.0965C54.1373 36.6514 55.959 38.5978 57.4257 40.1578C58.1586 40.9373 58.8019 41.6194 59.2619 42.1066C59.4113 42.2648 59.5414 42.4025 59.6489 42.5162C59.7544 42.5276 59.8744 42.5408 60.0071 42.5556C60.547 42.616 61.3004 42.705 62.1556 42.8193C63.8518 43.0459 66.0018 43.3791 67.6804 43.7976C68.9768 44.1207 70.1021 44.8042 70.9158 45.5965C71.6792 46.3399 72.375 47.39 72.375 48.5135V53.9763C72.375 54.7048 72.2074 55.5872 71.5191 56.2688C70.8357 56.9455 69.8931 57.1723 68.913 57.1723H68.6246C68.0967 60.1321 65.5039 62.375 62.3913 62.375C59.3705 62.375 56.8394 60.2625 56.2101 57.4324H38.3116C37.6823 60.2625 35.1512 62.375 32.1304 62.375C29.0121 62.375 26.4156 60.1239 25.8943 57.1561C25.5947 57.1455 25.3117 57.1279 25.0497 57.0989C24.3684 57.0234 23.6183 56.8529 22.9903 56.3519C22.333 55.8275 22.0074 55.1041 21.8373 54.3405C21.6723 53.6002 21.625 52.6938 21.625 51.6351V43.8311C21.625 43.7852 21.627 43.7398 21.6305 43.695C21.6266 43.6509 21.6247 43.6061 21.625 43.5609C21.6273 43.2566 21.7281 42.9761 21.8971 42.7496C21.9693 42.5804 22.0533 42.4029 22.1432 42.2232C22.3994 41.7111 22.7489 41.0923 23.139 40.4372C23.9219 39.1222 24.9144 37.5831 25.77 36.3034C26.3227 35.4766 26.9292 34.7163 27.7185 34.1766C28.5495 33.6084 29.4816 33.3513 30.5652 33.3513H31.538V31.1959H26.3913C25.6319 31.1959 25.0163 30.5803 25.0163 29.8209C25.0163 29.0615 25.6319 28.4459 26.3913 28.4459H51.6896C51.6905 28.4459 51.6918 28.4459 51.6933 28.4459C51.7014 28.4457 51.7177 28.4452 51.7413 28.444C51.7886 28.4417 51.8635 28.4367 51.9576 28.4261C52.1501 28.4044 52.3998 28.3619 52.6494 28.2827C53.1953 28.1095 53.4318 27.8741 53.5043 27.6213C53.7134 26.8912 54.4748 26.469 55.2048 26.6782ZM34.288 31.1959V33.3513H45.625V31.1959H34.288ZM41.3315 36.1013V42.3293L55.7919 42.4346C55.6716 42.3068 55.5482 42.1756 55.4221 42.0415C53.954 40.4799 52.1236 38.5243 50.6834 36.9576C50.3332 36.5766 50.0817 36.3893 49.8523 36.2814C49.6315 36.1774 49.334 36.1013 48.8261 36.1013H41.3315ZM58.8701 45.1999L58.8792 45.2008L58.9208 45.205C58.9578 45.2087 59.0131 45.2143 59.085 45.2218C59.2288 45.2368 59.4389 45.2592 59.7013 45.2885C60.2264 45.3473 60.9598 45.4339 61.7914 45.545C63.4689 45.7692 65.4928 46.0864 67.0152 46.4659C67.8058 46.663 68.5066 47.089 68.9973 47.5667C69.2409 47.804 69.4111 48.0331 69.514 48.2228C69.6135 48.4064 69.6239 48.5035 69.6249 48.513C69.6249 48.5134 69.625 48.5138 69.6249 48.513L69.625 53.9763C69.625 54.1912 69.5942 54.2852 69.5797 54.3165C69.5378 54.3418 69.3671 54.4223 68.913 54.4223H68.5088C67.7864 51.7239 65.3188 49.7399 62.3913 49.7399C59.3705 49.7399 56.8394 51.8523 56.2101 54.6824H38.3116C37.6823 51.8523 35.1512 49.7399 32.1304 49.7399C29.2078 49.7399 26.7436 51.7173 26.0166 54.4089C25.7657 54.4006 25.5473 54.3872 25.3525 54.3656C24.8598 54.311 24.7295 54.2214 24.7053 54.2021C24.698 54.1964 24.6789 54.181 24.6493 54.1264C24.6155 54.064 24.5672 53.9477 24.5214 53.7423C24.4255 53.3119 24.375 52.6575 24.375 51.6351V44.956L58.7291 45.206C58.7767 45.2064 58.8237 45.2043 58.8701 45.1999ZM25.2848 42.2125L38.5815 42.3093V36.1013H30.5652C29.9533 36.1013 29.581 36.2345 29.2707 36.4467C28.9187 36.6874 28.5468 37.0977 28.0561 37.8318C27.2154 39.0893 26.2514 40.5851 25.5019 41.844C25.4268 41.9701 25.3543 42.0931 25.2848 42.2125ZM28.5833 56.5536C28.7265 56.3366 28.8098 56.0767 28.8098 55.7973C28.8098 55.5724 28.7558 55.36 28.66 55.1726C29.0548 53.6323 30.4564 52.4899 32.1304 52.4899C33.8705 52.4899 35.3162 53.7242 35.6428 55.3566C35.521 55.5619 35.4511 55.8015 35.4511 56.0574C35.4511 56.3134 35.521 56.553 35.6428 56.7582C35.3162 58.3907 33.8705 59.625 32.1304 59.625C30.3184 59.625 28.8256 58.2864 28.5833 56.5536ZM62.3913 52.4899C60.4096 52.4899 58.8098 54.0908 58.8098 56.0574C58.8098 58.0241 60.4096 59.625 62.3913 59.625C64.373 59.625 65.9728 58.0241 65.9728 56.0574C65.9728 54.0908 64.373 52.4899 62.3913 52.4899Z" fill="#1787FF"/>
</g>
<defs>
<clipPath id="clip0_9_318">
<rect width="90" height="90" fill="white"/>
</clipPath>
</defs>
</svg>
