<svg width="47" height="46" viewBox="0 0 47 46" fill="none" xmlns="http://www.w3.org/2000/svg">
<path d="M19.1551 2.24826L18.4852 1.82813C17.174 1.02422 15.5375 0.557187 14.1307 0.995508C12.6186 1.46637 11.4127 2.63107 10.7811 4.38053L9.88145 3.91732C8.33106 3.11916 7.5195 3.10672 6.84671 3.40914C6.30981 3.64936 5.74995 4.2274 5.11544 5.0715L13.0014 11.1688C14.2359 11.5707 16.0447 11.5611 17.8535 11.0922C19.6719 10.6232 21.4807 9.70449 22.8014 8.46992L25.7777 1.11035C23.1555 -0.961621 20.7629 0.238496 19.1551 2.24826ZM24.2369 9.57051C22.61 11.2166 20.1887 12.3268 18.3033 12.8244C17.643 12.9967 16.9826 13.1211 16.3414 13.1881C15.9873 13.7719 15.6906 14.3652 15.4609 14.9586C15.9203 17.2938 16.7817 19.2078 18.0736 20.7773L16.6955 21.9258C15.9012 20.9688 15.193 19.9352 14.657 18.7867C14.5709 21.007 15.0686 23.3039 15.882 25.6965L14.1881 26.2707C12.6951 21.9066 12.1879 17.4373 14.2838 13.2264C13.5756 13.1689 12.9057 13.035 12.2836 12.8148L12.2549 12.8053C11.8434 13.1977 11.451 13.6092 11.0777 14.0398C8.0564 17.5426 6.39212 22.2033 7.26302 25.8305C7.72909 27.7732 8.56458 29.6107 9.76661 31.1803C11.5275 31.142 13.1928 31.1803 14.7049 31.7545C15.4227 31.6779 16.1596 31.6301 16.9252 31.6301C19.6527 31.6301 22.1219 32.1373 23.9881 33.0178C24.7154 33.3623 25.3758 33.7738 25.9022 34.2428C25.9022 33.7355 25.9787 33.19 26.1318 32.7881C25.2801 31.9842 24.7442 31.008 24.7442 29.8978C24.7442 28.357 25.7682 27.0842 27.2516 26.1654C27.2516 25.7252 27.3377 25.3041 27.4908 24.9021C26.5242 24.0695 25.9022 23.0359 25.9022 21.8301C25.9022 21.074 26.151 20.385 26.5721 19.7629C26.151 19.1504 25.9022 18.4613 25.9022 17.7053C25.9022 17.332 25.9596 16.9875 26.0649 16.6525C25.1365 15.8295 24.5527 14.815 24.5527 13.6475C24.5527 12.4895 25.127 11.4846 26.0457 10.6711C25.4811 10.2309 24.8781 9.85762 24.2369 9.57051ZM34.8983 9.79062C32.41 9.79062 30.1609 10.317 28.6201 11.0922C27.0697 11.8674 26.3424 12.8244 26.3424 13.6475C26.3424 14.4801 27.0697 15.4371 28.6201 16.2123C30.1609 16.9875 32.41 17.5139 34.8983 17.5139C35.9797 17.5139 37.0037 17.4086 37.9512 17.2363V15.6094C39.2815 15.4084 40.382 15.0447 41.0902 14.5758V16.2602C42.2865 15.9156 43.435 14.6428 43.4637 13.6475C43.4637 12.8244 42.7363 11.8674 41.1859 11.0922C39.6356 10.317 37.3961 9.79062 34.8983 9.79062ZM44.1336 16.2697C43.8178 16.6047 43.4445 16.9205 43.0234 17.2076L43.0426 19.983C44.2484 19.2652 44.8131 18.4326 44.8131 17.7053C44.8131 17.2459 44.593 16.7482 44.1336 16.2697ZM27.6918 17.7436C27.7205 18.5666 28.4479 19.4949 29.9695 20.2605C31.5199 21.0453 33.7594 21.5621 36.2572 21.5621C37.8172 21.5621 39.2815 21.3516 40.5352 21.007L40.6022 18.4039C38.9561 18.9781 37.0037 19.2939 34.8983 19.2939C32.1707 19.2939 29.692 18.7484 27.8162 17.8105C27.7684 17.7914 27.7301 17.7627 27.6918 17.7436ZM27.8832 21.074C27.7492 21.3324 27.6918 21.5908 27.6918 21.8301C27.6918 22.6627 28.4192 23.6197 29.9695 24.3949C31.5199 25.1701 33.7594 25.6869 36.2572 25.6869C37.5205 25.6869 38.7168 25.5625 39.7983 25.3232V23.0264C38.6881 23.2369 37.5014 23.3422 36.2572 23.3422C33.5201 23.3422 31.0414 22.8063 29.1656 21.8588C28.6967 21.6291 28.266 21.3611 27.8832 21.074ZM44.6217 21.074C44.0379 21.4855 43.5307 21.7918 42.9373 22.0502V24.1844C44.2102 23.4475 44.8131 22.5861 44.8131 21.8301C44.8131 21.5908 44.7557 21.3324 44.6217 21.074ZM45.3395 24.5959C45.1481 24.7873 44.9375 24.9691 44.7078 25.151V28.2518C45.6936 27.5818 46.1721 26.8449 46.1721 26.175C46.1721 25.6678 45.8945 25.1223 45.3395 24.5959ZM29.0604 25.9357C29.0508 26.0219 29.0412 26.0984 29.0412 26.175C29.0412 27.0076 29.7686 27.9551 31.319 28.7303C32.8693 29.515 35.1184 30.0318 37.6066 30.0318C39.0326 30.0318 40.3916 29.8596 41.5688 29.5725V26.7109C40.0088 27.2086 38.2 27.4766 36.2572 27.4766C33.5201 27.4766 31.0414 26.9311 29.1656 25.9932C29.1274 25.974 29.0986 25.9549 29.0604 25.9357ZM27.7588 27.9838C26.9262 28.6059 26.5338 29.2853 26.5338 29.8978C26.5338 30.7305 27.2611 31.6779 28.8115 32.4627C30.3619 33.2379 32.6014 33.7547 35.0992 33.7547C36.0084 33.7547 36.8889 33.6877 37.7119 33.5633V31.8215H37.6066C34.8695 31.8215 32.3908 31.276 30.515 30.3285C29.3188 29.7352 28.3234 28.9408 27.7588 27.9838ZM43.3106 30.9123C42.5545 31.1803 41.7315 31.4004 40.851 31.5439V32.702C41.0328 32.6254 41.2147 32.5488 41.3869 32.4627C42.3248 31.9842 42.9565 31.4482 43.3106 30.9123ZM44.191 32.6541C43.8274 33.0178 43.4063 33.3432 42.9373 33.6398V36.377C44.2102 35.6496 44.8131 34.7883 44.8131 34.0322C44.8131 33.592 44.6121 33.1135 44.191 32.6541ZM10.8193 32.9221C9.84317 32.9316 8.79044 33.0561 7.69942 33.3145C5.51644 33.8217 3.6397 34.75 2.4147 35.774C1.1897 36.7885 0.711182 37.8221 0.854736 38.559C0.998291 39.2959 1.75435 39.9754 3.22817 40.3678C4.69722 40.7506 6.75196 40.7697 8.93399 40.2625C9.81446 40.052 10.6375 39.784 11.3936 39.4682V37.4871C12.7908 36.865 13.834 36.1186 14.3029 35.3912V37.7264C15.4609 36.7311 15.9108 35.7357 15.7768 35.0084C15.6428 34.2715 14.8772 33.592 13.4033 33.2092C12.6664 33.0178 11.7859 32.9125 10.8193 32.9221ZM17.0018 33.4197C17.2602 33.793 17.442 34.2141 17.5377 34.683C17.643 35.2572 17.5951 35.8123 17.4229 36.3578C18.3703 36.6066 19.2317 36.9416 19.9781 37.3627C20.3992 37.5924 20.7916 37.8699 21.1361 38.157C21.9975 37.9561 22.7248 37.6689 23.2416 37.3244V39.2959C24.7824 38.5686 25.4906 37.6785 25.4906 36.9703C25.4906 36.2525 24.7824 35.3625 23.232 34.6352C21.6912 33.9174 19.4709 33.4293 17.0018 33.4197ZM27.7014 33.8982C27.6918 33.9365 27.6918 33.9844 27.6918 34.0322C27.6918 34.8648 28.4192 35.8123 29.9695 36.5971C31.5199 37.3723 33.7594 37.8891 36.2572 37.8891C37.5205 37.8891 38.7168 37.7551 39.7983 37.5254V34.951C38.3818 35.3338 36.7836 35.5443 35.0992 35.5443C32.3621 35.5443 29.8834 34.9988 28.0076 34.0609C27.9024 34.0035 27.7971 33.9461 27.7014 33.8982ZM27.9693 37.468C27.7779 37.7838 27.6918 38.09 27.6918 38.3867C27.6918 39.2193 28.4192 40.1668 29.9695 40.9516C31.5199 41.7268 33.7594 42.2436 36.2572 42.2436C37.5205 42.2436 38.7168 42.1096 39.7983 41.8799V39.3533C38.6881 39.5639 37.5014 39.6787 36.2572 39.6787C33.5201 39.6787 31.0414 39.1332 29.1656 38.1857C28.735 37.9752 28.333 37.7359 27.9693 37.468ZM44.5356 37.468C43.9805 37.8412 43.4924 38.1379 42.9373 38.3771V40.7314C44.2102 40.0041 44.8131 39.1428 44.8131 38.3867C44.8131 38.09 44.727 37.7838 44.5356 37.468ZM16.5328 37.9848C16.1979 38.4059 15.8055 38.8078 15.3652 39.1715C13.8723 40.4252 11.7668 41.4396 9.33595 42.0043C8.46888 42.2053 7.60755 42.3297 6.78067 42.3967C7.08692 42.9039 7.62573 43.4016 8.41433 43.8418C9.71876 44.5787 11.6328 45.0764 13.7574 45.0764C14.724 45.0764 15.6428 44.9711 16.485 44.7893V42.7986C17.8057 42.5977 18.9158 42.234 19.624 41.765V43.526C20.5811 42.8561 21.0404 42.1 21.0404 41.3822C21.0404 40.5496 20.4184 39.6596 19.1072 38.9227C18.399 38.5303 17.5186 38.2049 16.5328 37.9848Z" fill="black"/>
<path d="M19.1551 2.24826L18.4852 1.82813C17.174 1.02422 15.5375 0.557187 14.1307 0.995508C12.6186 1.46637 11.4127 2.63107 10.7811 4.38053L9.88145 3.91732C8.33106 3.11916 7.5195 3.10672 6.84671 3.40914C6.30981 3.64936 5.74995 4.2274 5.11544 5.0715L13.0014 11.1688C14.2359 11.5707 16.0447 11.5611 17.8535 11.0922C19.6719 10.6232 21.4807 9.70449 22.8014 8.46992L25.7777 1.11035C23.1555 -0.961621 20.7629 0.238496 19.1551 2.24826ZM24.2369 9.57051C22.61 11.2166 20.1887 12.3268 18.3033 12.8244C17.643 12.9967 16.9826 13.1211 16.3414 13.1881C15.9873 13.7719 15.6906 14.3652 15.4609 14.9586C15.9203 17.2938 16.7817 19.2078 18.0736 20.7773L16.6955 21.9258C15.9012 20.9688 15.193 19.9352 14.657 18.7867C14.5709 21.007 15.0686 23.3039 15.882 25.6965L14.1881 26.2707C12.6951 21.9066 12.1879 17.4373 14.2838 13.2264C13.5756 13.1689 12.9057 13.035 12.2836 12.8148L12.2549 12.8053C11.8434 13.1977 11.451 13.6092 11.0777 14.0398C8.0564 17.5426 6.39212 22.2033 7.26302 25.8305C7.72909 27.7732 8.56458 29.6107 9.76661 31.1803C11.5275 31.142 13.1928 31.1803 14.7049 31.7545C15.4227 31.6779 16.1596 31.6301 16.9252 31.6301C19.6527 31.6301 22.1219 32.1373 23.9881 33.0178C24.7154 33.3623 25.3758 33.7738 25.9022 34.2428C25.9022 33.7355 25.9787 33.19 26.1318 32.7881C25.2801 31.9842 24.7442 31.008 24.7442 29.8978C24.7442 28.357 25.7682 27.0842 27.2516 26.1654C27.2516 25.7252 27.3377 25.3041 27.4908 24.9021C26.5242 24.0695 25.9022 23.0359 25.9022 21.8301C25.9022 21.074 26.151 20.385 26.5721 19.7629C26.151 19.1504 25.9022 18.4613 25.9022 17.7053C25.9022 17.332 25.9596 16.9875 26.0649 16.6525C25.1365 15.8295 24.5527 14.815 24.5527 13.6475C24.5527 12.4895 25.127 11.4846 26.0457 10.6711C25.4811 10.2309 24.8781 9.85762 24.2369 9.57051ZM34.8983 9.79062C32.41 9.79062 30.1609 10.317 28.6201 11.0922C27.0697 11.8674 26.3424 12.8244 26.3424 13.6475C26.3424 14.4801 27.0697 15.4371 28.6201 16.2123C30.1609 16.9875 32.41 17.5139 34.8983 17.5139C35.9797 17.5139 37.0037 17.4086 37.9512 17.2363V15.6094C39.2815 15.4084 40.382 15.0447 41.0902 14.5758V16.2602C42.2865 15.9156 43.435 14.6428 43.4637 13.6475C43.4637 12.8244 42.7363 11.8674 41.1859 11.0922C39.6356 10.317 37.3961 9.79062 34.8983 9.79062ZM44.1336 16.2697C43.8178 16.6047 43.4445 16.9205 43.0234 17.2076L43.0426 19.983C44.2484 19.2652 44.8131 18.4326 44.8131 17.7053C44.8131 17.2459 44.593 16.7482 44.1336 16.2697ZM27.6918 17.7436C27.7205 18.5666 28.4479 19.4949 29.9695 20.2605C31.5199 21.0453 33.7594 21.5621 36.2572 21.5621C37.8172 21.5621 39.2815 21.3516 40.5352 21.007L40.6022 18.4039C38.9561 18.9781 37.0037 19.2939 34.8983 19.2939C32.1707 19.2939 29.692 18.7484 27.8162 17.8105C27.7684 17.7914 27.7301 17.7627 27.6918 17.7436ZM27.8832 21.074C27.7492 21.3324 27.6918 21.5908 27.6918 21.8301C27.6918 22.6627 28.4192 23.6197 29.9695 24.3949C31.5199 25.1701 33.7594 25.6869 36.2572 25.6869C37.5205 25.6869 38.7168 25.5625 39.7983 25.3232V23.0264C38.6881 23.2369 37.5014 23.3422 36.2572 23.3422C33.5201 23.3422 31.0414 22.8063 29.1656 21.8588C28.6967 21.6291 28.266 21.3611 27.8832 21.074ZM44.6217 21.074C44.0379 21.4855 43.5307 21.7918 42.9373 22.0502V24.1844C44.2102 23.4475 44.8131 22.5861 44.8131 21.8301C44.8131 21.5908 44.7557 21.3324 44.6217 21.074ZM45.3395 24.5959C45.1481 24.7873 44.9375 24.9691 44.7078 25.151V28.2518C45.6936 27.5818 46.1721 26.8449 46.1721 26.175C46.1721 25.6678 45.8945 25.1223 45.3395 24.5959ZM29.0604 25.9357C29.0508 26.0219 29.0412 26.0984 29.0412 26.175C29.0412 27.0076 29.7686 27.9551 31.319 28.7303C32.8693 29.515 35.1184 30.0318 37.6066 30.0318C39.0326 30.0318 40.3916 29.8596 41.5688 29.5725V26.7109C40.0088 27.2086 38.2 27.4766 36.2572 27.4766C33.5201 27.4766 31.0414 26.9311 29.1656 25.9932C29.1274 25.974 29.0986 25.9549 29.0604 25.9357ZM27.7588 27.9838C26.9262 28.6059 26.5338 29.2853 26.5338 29.8978C26.5338 30.7305 27.2611 31.6779 28.8115 32.4627C30.3619 33.2379 32.6014 33.7547 35.0992 33.7547C36.0084 33.7547 36.8889 33.6877 37.7119 33.5633V31.8215H37.6066C34.8695 31.8215 32.3908 31.276 30.515 30.3285C29.3188 29.7352 28.3234 28.9408 27.7588 27.9838ZM43.3106 30.9123C42.5545 31.1803 41.7315 31.4004 40.851 31.5439V32.702C41.0328 32.6254 41.2147 32.5488 41.3869 32.4627C42.3248 31.9842 42.9565 31.4482 43.3106 30.9123ZM44.191 32.6541C43.8274 33.0178 43.4063 33.3432 42.9373 33.6398V36.377C44.2102 35.6496 44.8131 34.7883 44.8131 34.0322C44.8131 33.592 44.6121 33.1135 44.191 32.6541ZM10.8193 32.9221C9.84317 32.9316 8.79044 33.0561 7.69942 33.3145C5.51644 33.8217 3.6397 34.75 2.4147 35.774C1.1897 36.7885 0.711182 37.8221 0.854736 38.559C0.998291 39.2959 1.75435 39.9754 3.22817 40.3678C4.69722 40.7506 6.75196 40.7697 8.93399 40.2625C9.81446 40.052 10.6375 39.784 11.3936 39.4682V37.4871C12.7908 36.865 13.834 36.1186 14.3029 35.3912V37.7264C15.4609 36.7311 15.9108 35.7357 15.7768 35.0084C15.6428 34.2715 14.8772 33.592 13.4033 33.2092C12.6664 33.0178 11.7859 32.9125 10.8193 32.9221ZM17.0018 33.4197C17.2602 33.793 17.442 34.2141 17.5377 34.683C17.643 35.2572 17.5951 35.8123 17.4229 36.3578C18.3703 36.6066 19.2317 36.9416 19.9781 37.3627C20.3992 37.5924 20.7916 37.8699 21.1361 38.157C21.9975 37.9561 22.7248 37.6689 23.2416 37.3244V39.2959C24.7824 38.5686 25.4906 37.6785 25.4906 36.9703C25.4906 36.2525 24.7824 35.3625 23.232 34.6352C21.6912 33.9174 19.4709 33.4293 17.0018 33.4197ZM27.7014 33.8982C27.6918 33.9365 27.6918 33.9844 27.6918 34.0322C27.6918 34.8648 28.4192 35.8123 29.9695 36.5971C31.5199 37.3723 33.7594 37.8891 36.2572 37.8891C37.5205 37.8891 38.7168 37.7551 39.7983 37.5254V34.951C38.3818 35.3338 36.7836 35.5443 35.0992 35.5443C32.3621 35.5443 29.8834 34.9988 28.0076 34.0609C27.9024 34.0035 27.7971 33.9461 27.7014 33.8982ZM27.9693 37.468C27.7779 37.7838 27.6918 38.09 27.6918 38.3867C27.6918 39.2193 28.4192 40.1668 29.9695 40.9516C31.5199 41.7268 33.7594 42.2436 36.2572 42.2436C37.5205 42.2436 38.7168 42.1096 39.7983 41.8799V39.3533C38.6881 39.5639 37.5014 39.6787 36.2572 39.6787C33.5201 39.6787 31.0414 39.1332 29.1656 38.1857C28.735 37.9752 28.333 37.7359 27.9693 37.468ZM44.5356 37.468C43.9805 37.8412 43.4924 38.1379 42.9373 38.3771V40.7314C44.2102 40.0041 44.8131 39.1428 44.8131 38.3867C44.8131 38.09 44.727 37.7838 44.5356 37.468ZM16.5328 37.9848C16.1979 38.4059 15.8055 38.8078 15.3652 39.1715C13.8723 40.4252 11.7668 41.4396 9.33595 42.0043C8.46888 42.2053 7.60755 42.3297 6.78067 42.3967C7.08692 42.9039 7.62573 43.4016 8.41433 43.8418C9.71876 44.5787 11.6328 45.0764 13.7574 45.0764C14.724 45.0764 15.6428 44.9711 16.485 44.7893V42.7986C17.8057 42.5977 18.9158 42.234 19.624 41.765V43.526C20.5811 42.8561 21.0404 42.1 21.0404 41.3822C21.0404 40.5496 20.4184 39.6596 19.1072 38.9227C18.399 38.5303 17.5186 38.2049 16.5328 37.9848Z" fill="black" fill-opacity="0.2"/>
</svg>
