<svg width="90" height="90" viewBox="0 0 90 90" fill="none" xmlns="http://www.w3.org/2000/svg">
<g clip-path="url(#clip0_9_291)">
<circle cx="45" cy="45" r="45" fill="#E6F2FF"/>
<path fill-rule="evenodd" clip-rule="evenodd" d="M33.9333 25.625C34.58 25.625 35.1393 26.0757 35.2768 26.7076L37.0542 34.875H50.9151L52.6925 26.7076C52.83 26.0757 53.3893 25.625 54.0361 25.625L62.0881 25.625C62.4543 25.625 62.8053 25.7711 63.0635 26.0309C64.1078 27.082 65.1322 28.7856 65.9062 30.562C66.684 32.347 67.2877 34.3853 67.3663 36.1644C67.4405 37.8437 67.0387 39.954 65.0112 40.7284C64.0862 41.0817 63.0222 41.0528 61.8924 40.7713C60.9487 40.5362 59.885 40.1068 58.69 39.4764C58.4778 39.6798 58.2676 39.9589 58.1266 40.3171C57.8987 40.896 57.7908 41.838 58.4055 43.2529C59.8916 44.4367 61.4314 45.4435 62.6282 46.1683C63.2577 46.5496 63.7874 46.8499 64.1577 47.0537C64.3427 47.1556 64.4876 47.2333 64.585 47.2848C64.6336 47.3105 64.6703 47.3297 64.6942 47.3421L64.7203 47.3556L64.7258 47.3585C64.7259 47.3585 64.7258 47.3584 64.7258 47.3585C65.258 47.6303 65.5544 48.2151 65.4581 48.8048L64.1011 48.5833C65.4581 48.8048 65.4582 48.8045 65.4581 48.8048L65.4575 48.8082L65.4568 48.8127L65.4547 48.8251L65.4479 48.8633C65.4423 48.8947 65.4342 48.938 65.4233 48.9928C65.4016 49.1025 65.3688 49.2586 65.3219 49.4589C65.228 49.8596 65.0779 50.4375 64.8476 51.1764C64.3871 52.6544 63.6065 54.7755 62.3165 57.4102C60.4215 61.2803 58.5069 63.5058 57.5455 64.479C56.9275 65.1044 56.1146 65.375 55.3429 65.375H33.509C32.8399 65.375 32.1239 65.1726 31.5322 64.6751C30.46 63.7733 28.1333 61.5036 26.1289 57.4102C24.8549 54.8083 23.9605 52.7215 23.3825 51.2787C23.0935 50.5573 22.8835 49.9968 22.7448 49.6133C22.6754 49.4216 22.6238 49.2741 22.589 49.1729C22.5716 49.1223 22.5584 49.0832 22.5492 49.056L22.5386 49.0241L22.5355 49.0148L22.5346 49.0118L22.5342 49.0108C22.5342 49.0106 22.534 49.01 23.8411 48.5833L22.5342 49.0108C22.3347 48.3996 22.5851 47.731 23.1374 47.402L23.1444 47.3978L23.1712 47.3817C23.1955 47.3671 23.2326 47.3446 23.2814 47.3148C23.3791 47.2551 23.5239 47.1658 23.7085 47.0497C24.0779 46.8175 24.6056 46.4786 25.233 46.0555C26.3862 45.2781 27.8629 44.2255 29.308 43.036C29.5154 41.5073 29.437 40.4626 29.2881 39.8009C29.2871 39.7968 29.2862 39.7927 29.2853 39.7887C27.3934 40.8217 25.6738 41.1777 24.2278 40.5726C22.4076 39.8109 21.7963 37.8764 21.6597 36.2135C21.5159 34.462 21.8301 32.445 22.393 30.6527C22.915 28.9904 23.7057 27.3472 24.7088 26.2389C24.9552 25.8688 25.3762 25.625 25.8541 25.625H25.8797C25.8802 25.625 25.8808 25.625 25.8813 25.625L33.9333 25.625ZM32.7981 28.375L26.507 28.375C25.9638 29.0881 25.4238 30.18 25.0166 31.4766C24.5289 33.0296 24.2932 34.6818 24.4005 35.9884C24.5151 37.3836 24.956 37.8963 25.2894 38.0358C25.679 38.1988 26.7629 38.2465 29.0254 36.7281C29.4872 36.4182 30.0904 36.417 30.5534 36.7252C31.2471 37.1869 31.7247 38.1034 31.9709 39.1969C32.0527 39.5602 32.1142 39.9637 32.1497 40.4099C32.5343 39.9989 32.8877 39.5875 33.1995 39.1801C34.0758 38.0354 34.4943 37.0897 34.5399 36.3786L32.7981 28.375ZM37.1026 37.625C36.7907 38.775 36.1322 39.8732 35.3832 40.8517C34.3116 42.2515 32.8964 43.6091 31.4768 44.8081C29.8078 46.2178 28.0771 47.4547 26.7703 48.3357C26.4211 48.5712 26.101 48.7819 25.8192 48.9646C26.0006 49.1582 26.2173 49.3657 26.4724 49.574C27.505 50.4176 29.2156 51.3194 31.8931 51.3194H56.0491C58.1782 51.3194 59.9094 50.4507 61.1424 49.535C61.42 49.3289 61.669 49.1227 61.8879 48.9274C61.6755 48.8035 61.4464 48.6676 61.2036 48.5206C59.875 47.716 58.1152 46.5639 56.423 45.1872C55.0026 44.0317 53.5877 42.6843 52.5177 41.2165C51.729 40.1346 51.0803 38.9221 50.7988 37.625H37.1026ZM53.4008 36.3853C53.4396 37.3539 53.8927 38.4344 54.7399 39.5965C54.9102 39.8301 55.0934 40.0628 55.2876 40.2938C55.3507 39.949 55.4453 39.6207 55.5677 39.3098C56.1196 37.9079 57.1731 37.0224 58.0469 36.6206C58.4499 36.4353 58.9176 36.4558 59.3029 36.6757C60.6809 37.4622 61.75 37.9017 62.5573 38.1029C63.3715 38.3058 63.8157 38.2412 64.0299 38.1594C64.2808 38.0636 64.6817 37.706 64.619 36.2858C64.5606 34.9654 64.0876 33.2725 63.3852 31.6605C62.7962 30.3087 62.1005 29.1389 61.4757 28.375L55.144 28.375L53.4008 36.3853ZM27.1755 53.1693C27.5812 54.074 28.0539 55.0881 28.5988 56.2009C30.4065 59.8928 32.4696 61.8702 33.3021 62.5703C33.324 62.5887 33.3834 62.625 33.509 62.625H55.3429C55.4853 62.625 55.5577 62.578 55.5891 62.5463C56.3581 61.768 58.0926 59.7832 59.8466 56.2009C60.5064 54.8536 61.0222 53.6551 61.4235 52.6253C60.0043 53.4226 58.1925 54.0694 56.0491 54.0694H31.8931C30.0023 54.0694 28.4425 53.7044 27.1755 53.1693Z" fill="#1787FF"/>
</g>
<defs>
<clipPath id="clip0_9_291">
<rect width="90" height="90" fill="white"/>
</clipPath>
</defs>
</svg>
