<svg width="90" height="90" viewBox="0 0 90 90" fill="none" xmlns="http://www.w3.org/2000/svg">
<g clip-path="url(#clip0_9_276)">
<circle cx="45" cy="45" r="45" fill="#E6F2FF"/>
<path fill-rule="evenodd" clip-rule="evenodd" d="M34.7159 18.2603C34.7159 16.148 36.5394 14.625 38.5455 14.625C40.5515 14.625 42.375 16.148 42.375 18.2603V27.4332H46.1705V26.9247C46.1705 24.6044 48.1771 22.9127 50.4091 22.9127C52.6411 22.9127 54.6477 24.6044 54.6477 26.9247V27.6312C56.4921 28.1737 57.9205 29.7799 57.9205 31.8219V35.2122C59.3141 35.7233 60.375 36.9916 60.375 38.6027V43.8767C60.375 45.4879 59.3141 46.7562 57.9205 47.2673V67.9863C57.9205 70.5147 55.7307 72.375 53.2727 72.375H35.2727C32.8148 72.375 30.625 70.5147 30.625 67.9863V31.8219C30.625 29.4864 32.4935 27.7209 34.7159 27.4651V18.2603ZM37.4659 27.4332H39.625V18.2603C39.625 17.8759 39.2506 17.375 38.5455 17.375C37.8403 17.375 37.4659 17.8759 37.4659 18.2603V27.4332ZM35.2727 30.1832C34.1157 30.1832 33.375 31.0214 33.375 31.8219V38.3579H55.1705V31.8219C55.1705 31.0214 54.4298 30.1832 53.2727 30.1832H35.2727ZM51.8977 27.4332H48.9205V26.9247C48.9205 26.3322 49.478 25.6627 50.4091 25.6627C51.3402 25.6627 51.8977 26.3322 51.8977 26.9247V27.4332ZM55.1705 41.1079H33.375V67.9863C33.375 68.7868 34.1157 69.625 35.2727 69.625H53.2727C54.4298 69.625 55.1705 68.7868 55.1705 67.9863V41.1079ZM41.2614 43.8767C41.2614 43.1173 41.877 42.5017 42.6364 42.5017H45.9091C46.6685 42.5017 47.2841 43.1173 47.2841 43.8767C47.2841 44.6361 46.6685 45.2517 45.9091 45.2517H42.6364C41.877 45.2517 41.2614 44.6361 41.2614 43.8767ZM34.7159 46.8904C34.7159 46.131 35.3315 45.5154 36.0909 45.5154H39.3636C40.123 45.5154 40.7386 46.131 40.7386 46.8904C40.7386 47.6498 40.123 48.2654 39.3636 48.2654H36.0909C35.3315 48.2654 34.7159 47.6498 34.7159 46.8904ZM47.8068 46.8904C47.8068 46.131 48.4224 45.5154 49.1818 45.5154H52.4545C53.2139 45.5154 53.8295 46.131 53.8295 46.8904C53.8295 47.6498 53.2139 48.2654 52.4545 48.2654H49.1818C48.4224 48.2654 47.8068 47.6498 47.8068 46.8904ZM41.2614 49.9041C41.2614 49.1447 41.877 48.5291 42.6364 48.5291H45.9091C46.6685 48.5291 47.2841 49.1447 47.2841 49.9041C47.2841 50.6635 46.6685 51.2791 45.9091 51.2791H42.6364C41.877 51.2791 41.2614 50.6635 41.2614 49.9041ZM34.7159 55.1781C34.7159 54.4187 35.3315 53.8031 36.0909 53.8031H39.3636C40.123 53.8031 40.7386 54.4187 40.7386 55.1781C40.7386 55.9375 40.123 56.5531 39.3636 56.5531H36.0909C35.3315 56.5531 34.7159 55.9375 34.7159 55.1781ZM41.2614 55.1781C41.2614 54.4187 41.877 53.8031 42.6364 53.8031H45.9091C46.6685 53.8031 47.2841 54.4187 47.2841 55.1781C47.2841 55.9375 46.6685 56.5531 45.9091 56.5531H42.6364C41.877 56.5531 41.2614 55.9375 41.2614 55.1781ZM47.8068 55.1781C47.8068 54.4187 48.4224 53.8031 49.1818 53.8031H52.4545C53.2139 53.8031 53.8295 54.4187 53.8295 55.1781C53.8295 55.9375 53.2139 56.5531 52.4545 56.5531H49.1818C48.4224 56.5531 47.8068 55.9375 47.8068 55.1781ZM34.7159 61.2055C34.7159 60.4461 35.3315 59.8305 36.0909 59.8305H39.3636C40.123 59.8305 40.7386 60.4461 40.7386 61.2055C40.7386 61.9649 40.123 62.5805 39.3636 62.5805H36.0909C35.3315 62.5805 34.7159 61.9649 34.7159 61.2055ZM41.2614 61.2055C41.2614 60.4461 41.877 59.8305 42.6364 59.8305H45.9091C46.6685 59.8305 47.2841 60.4461 47.2841 61.2055C47.2841 61.9649 46.6685 62.5805 45.9091 62.5805H42.6364C41.877 62.5805 41.2614 61.9649 41.2614 61.2055ZM47.8068 61.2055C47.8068 60.4461 48.4224 59.8305 49.1818 59.8305H52.4545C53.2139 59.8305 53.8295 60.4461 53.8295 61.2055C53.8295 61.9649 53.2139 62.5805 52.4545 62.5805H49.1818C48.4224 62.5805 47.8068 61.9649 47.8068 61.2055ZM35.5341 66.4795C35.5341 65.7201 36.1497 65.1045 36.9091 65.1045H51.6364C52.3958 65.1045 53.0114 65.7201 53.0114 66.4795C53.0114 67.2388 52.3958 67.8545 51.6364 67.8545H36.9091C36.1497 67.8545 35.5341 67.2388 35.5341 66.4795Z" fill="#1787FF"/>
</g>
<defs>
<clipPath id="clip0_9_276">
<rect width="90" height="90" fill="white"/>
</clipPath>
</defs>
</svg>
