<svg width="30" height="30" viewBox="0 0 30 30" fill="none" xmlns="http://www.w3.org/2000/svg">
<path d="M29.0624 9.375C29.0628 8.86108 28.9426 8.35425 28.7113 7.89532C28.48 7.4364 28.1441 7.03822 27.7307 6.73287C27.3174 6.42752 26.838 6.22354 26.3314 6.13735C25.8248 6.05117 25.305 6.08519 24.8139 6.23669C24.3228 6.38818 23.8742 6.65291 23.5041 7.00954C23.1341 7.36617 22.853 7.80473 22.6835 8.28989C22.514 8.77505 22.4608 9.29324 22.5283 9.80271C22.5957 10.3122 22.7819 10.7987 23.0718 11.223L19.9323 15.0902L17.1093 8.60156C17.6241 8.16823 17.9933 7.58706 18.1668 6.93683C18.3402 6.28661 18.3095 5.59878 18.0789 4.96657C17.8483 4.33437 17.4288 3.78837 16.8774 3.40258C16.326 3.01679 15.6693 2.80988 14.9964 2.80988C14.3234 2.80988 13.6667 3.01679 13.1153 3.40258C12.5639 3.78837 12.1445 4.33437 11.9138 4.96657C11.6832 5.59878 11.6525 6.28661 11.826 6.93683C11.9994 7.58706 12.3686 8.16823 12.8835 8.60156L10.0675 15.0867L6.92801 11.2195C7.3313 10.6286 7.53041 9.92207 7.49501 9.20752C7.45961 8.49297 7.19165 7.80957 6.73193 7.2614C6.27222 6.71323 5.64594 6.33033 4.94848 6.17101C4.25102 6.01169 3.5206 6.08469 2.86846 6.37889C2.21633 6.67308 1.67821 7.17236 1.33607 7.80067C0.993936 8.42898 0.866521 9.15189 0.973237 9.85931C1.07995 10.5667 1.41495 11.2199 1.92721 11.7193C2.43947 12.2187 3.10092 12.5371 3.81082 12.6258L5.50769 22.8082C5.58064 23.246 5.80651 23.6437 6.14511 23.9306C6.48372 24.2175 6.91311 24.3749 7.35691 24.375H22.6429C23.0867 24.3749 23.516 24.2175 23.8547 23.9306C24.1933 23.6437 24.4191 23.246 24.4921 22.8082L26.1878 12.6305C26.9813 12.5314 27.7114 12.1458 28.2407 11.5464C28.7701 10.9469 29.0623 10.1747 29.0624 9.375ZM14.9999 4.6875C15.278 4.6875 15.5499 4.76998 15.7812 4.9245C16.0124 5.07902 16.1927 5.29864 16.2991 5.5556C16.4055 5.81256 16.4334 6.09531 16.3791 6.3681C16.3249 6.64088 16.1909 6.89145 15.9943 7.08812C15.7976 7.28479 15.547 7.41872 15.2742 7.47298C15.0014 7.52724 14.7187 7.49939 14.4617 7.39296C14.2048 7.28652 13.9851 7.10628 13.8306 6.87502C13.6761 6.64376 13.5936 6.37188 13.5936 6.09375C13.5936 5.72079 13.7418 5.3631 14.0055 5.09938C14.2692 4.83566 14.6269 4.6875 14.9999 4.6875ZM2.81238 9.375C2.81238 9.09687 2.89486 8.82499 3.04938 8.59373C3.2039 8.36247 3.42352 8.18223 3.68048 8.07579C3.93744 7.96936 4.22019 7.94151 4.49298 7.99577C4.76576 8.05003 5.01633 8.18396 5.213 8.38063C5.40967 8.5773 5.5436 8.82787 5.59786 9.10065C5.65212 9.37344 5.62427 9.65619 5.51784 9.91315C5.4114 10.1701 5.23116 10.3897 4.9999 10.5443C4.76865 10.6988 4.49676 10.7813 4.21863 10.7813C3.84567 10.7813 3.48799 10.6331 3.22426 10.3694C2.96054 10.1056 2.81238 9.74796 2.81238 9.375ZM25.7811 10.7813C25.503 10.7813 25.2311 10.6988 24.9999 10.5443C24.7686 10.3897 24.5884 10.1701 24.4819 9.91315C24.3755 9.65619 24.3476 9.37344 24.4019 9.10065C24.4562 8.82787 24.5901 8.5773 24.7868 8.38063C24.9834 8.18396 25.234 8.05003 25.5068 7.99577C25.7796 7.94151 26.0623 7.96936 26.3193 8.07579C26.5762 8.18223 26.7959 8.36247 26.9504 8.59373C27.1049 8.82499 27.1874 9.09687 27.1874 9.375C27.1874 9.74796 27.0392 10.1056 26.7755 10.3694C26.5118 10.6331 26.1541 10.7813 25.7811 10.7813Z" fill="black"/>
</svg>
