<?xml version="1.0" encoding="utf-8"?>
<!-- Generator: Adobe Illustrator 21.0.0, SVG Export Plug-In . SVG Version: 6.00 Build 0)  -->
<svg version="1.1" id="Слой_2" xmlns="http://www.w3.org/2000/svg" xmlns:xlink="http://www.w3.org/1999/xlink" x="0px" y="0px"
	 viewBox="0 0 296 415" style="enable-background:new 0 0 296 415;" xml:space="preserve">
<style type="text/css">
	.st0{fill:none;stroke:#3F4D51;stroke-width:1.0078;stroke-linejoin:round;stroke-miterlimit:10;}
</style>
<g>
	<g>
		<ellipse class="st0" cx="261.8" cy="276.5" rx="16.1" ry="15.6"/>
		<ellipse class="st0" cx="261.8" cy="276.5" rx="22.3" ry="21.5"/>
	</g>
	<path class="st0" d="M214.9,153.2c0,0-2.5,5.6,0.9,7.4c3.3,1.8,6.4,1.5,7.6-0.8s0.6-11.3-2.7-11.6
		C217.2,148,214.9,153.2,214.9,153.2z"/>
	<path class="st0" d="M236.2,80.7c0,0-2.2-5.2-1.8-8.8c0.4-3.6,5.1-13,5.1-13s1.4,1.9,2.5,1.9c1.1,0,2.5-1.3,3.3,0s-0.7,10.1-1.4,11
		C243.1,72.9,236.2,80.7,236.2,80.7z"/>
	<path class="st0" d="M258.3,56.1c0,0-3.6,1.3-3.3,3.9c0.4,2.6,9.4,4.9,10.9,4.9s1.8-7.8,1.8-7.8"/>
	<path class="st0" d="M274.3,122.6c-1.4,0.7-16.5,2.9-26.3-3.7c-19.6-13-10.3-38.4,4.2-42.4c14.5-4,21.7-1,21.7-1"/>
	<path class="st0" d="M270.6,301.1c0,0-13.1,2.4-23.1-3.9c-21.1-13.4-10.8-39.1,4.6-43.1c14.6-3.8,21-0.3,21-0.3"/>
	<path class="st0" d="M274.3,80.5l0-4.6c0,0-1.8-19.1-4-19.5c-2.2-0.3-2.5,0.6-2.5,0.6l-9.4-1l-2.2-1.9c0,0-16.3,1.3-19.2,3.2
		c-2.9,1.9-8.7,25.6-10.5,36c-1.7,9.6-4.3,43.2-4.3,43.2s-24.6,35.7-26.8,44.8c-2,8.2-1,58.2-0.8,68.3c0,1.2,0.2,2.4,0.5,3.6
		c0.9,3.4,3,10.7,5,15.1c2.5,5.8,15.2,30.5,15.6,32.4c0.4,1.9,4.3,24.3,4.3,27.6c0,0,4,2.3,5.8,2.3s0.7,1.6,2.9,1.6
		c2.2,0,7.2,0.3,7.2,0.3s7.6,2.9,8.7,2.9s15.6,1,17.4,0.3c1.8-0.6,3.3-8.4,4.3-13c1.1-4.5,4-22.7,4-22.7l-0.3-3.9"/>
	<path class="st0" d="M225.7,330.6c0,0,1.1-11.4,1.4-14.3c0.4-2.9,3.3-3.6,3.3-3.6l5.4,19.8"/>
	<path class="st0" d="M267.5,123.1l-1.5,124.7c0,0-16.7,0.3-26.1,9.7c-3.8,3.8-8.7,13.3-14.5,15.9c-5.8,2.6-6.5,0.3-6.5,0.3
		S202.2,259,200,246.2c-2.7-15.1-0.7-58.7,0-63.6c0.7-4.8,14.3-31.6,22.3-38.8c0.3-0.3,0.6-0.6,0.8-0.9c1.1-1.5,5.2-5.8,14.5-6.7
		c11.2-1,29.6,2.8,29.6,2.8"/>
	<path class="st0" d="M199.1,206.7l21.9-4c0,0,9.4-4.1,19.2-3.9c13,0.3,26.8,2.3,26.8,2.3"/>
	<polyline class="st0" points="273.3,257.4 273.2,252.7 274.6,120.6 274.5,117.3 	"/>
	<path class="st0" d="M222.9,160.2l-3.2,111.4c0,0-17.3-18.7-18.3-28.4c-1.5-14.6-1.1-54.8,1.1-60.7c2.2-5.8,11.4-24.1,11.4-24.1"/>
	<g>
		<ellipse class="st0" cx="262.8" cy="98.6" rx="16.1" ry="15.6"/>
		<ellipse class="st0" cx="262.8" cy="98.6" rx="22.3" ry="21.5"/>
	</g>
</g>
<g>
	<g>
		<ellipse class="st0" cx="35.1" cy="276.5" rx="16.1" ry="15.6"/>
		<ellipse class="st0" cx="35.1" cy="276.5" rx="22.3" ry="21.5"/>
	</g>
	<path class="st0" d="M82.1,153.2c0,0,2.5,5.6-0.9,7.4c-3.3,1.8-6.4,1.5-7.6-0.8c-1.2-2.3-0.6-11.3,2.7-11.6
		C79.7,148,82.1,153.2,82.1,153.2z"/>
	<path class="st0" d="M60.7,80.7c0,0,2.2-5.2,1.8-8.8c-0.4-3.6-5.1-13-5.1-13s-1.4,1.9-2.5,1.9s-2.5-1.3-3.3,0
		c-0.7,1.3,0.7,10.1,1.4,11S60.7,80.7,60.7,80.7z"/>
	<path class="st0" d="M38.6,56.1c0,0,3.6,1.3,3.3,3.9c-0.4,2.6-9.4,4.9-10.9,4.9S29.2,57,29.2,57"/>
	<path class="st0" d="M22.7,122.6c1.4,0.7,16.5,2.9,26.3-3.7c19.6-13,10.3-38.4-4.2-42.4c-14.5-4-21.7-1-21.7-1"/>
	<path class="st0" d="M26.3,301.1c0,0,13.1,2.4,23.1-3.9c21.1-13.4,10.8-39.1-4.6-43.1c-14.6-3.8-21-0.3-21-0.3"/>
	<path class="st0" d="M22.6,80.5l0-4.6c0,0,1.8-19.1,4-19.5s2.5,0.6,2.5,0.6l9.4-1l2.2-1.9c0,0,16.3,1.3,19.2,3.2s8.7,25.6,10.5,36
		c1.7,9.6,4.3,43.2,4.3,43.2s24.6,35.7,26.8,44.8c2,8.2,1,58.2,0.8,68.3c0,1.2-0.2,2.4-0.5,3.6c-0.9,3.4-3,10.7-5,15.1
		c-2.5,5.8-15.2,30.5-15.6,32.4c-0.4,1.9-4.3,24.3-4.3,27.6c0,0-4,2.3-5.8,2.3s-0.7,1.6-2.9,1.6s-7.2,0.3-7.2,0.3s-7.6,2.9-8.7,2.9
		c-1.1,0-15.6,1-17.4,0.3c-1.8-0.6-3.3-8.4-4.3-13c-1.1-4.5-4-22.7-4-22.7l0.3-3.9"/>
	<path class="st0" d="M71.2,330.6c0,0-1.1-11.4-1.4-14.3c-0.4-2.9-3.3-3.6-3.3-3.6l-5.4,19.8"/>
	<path class="st0" d="M29.4,123.1L31,247.8c0,0,16.7,0.3,26.1,9.7c3.8,3.8,8.7,13.3,14.5,15.9s6.5,0.3,6.5,0.3S94.7,259,97,246.2
		c2.7-15.1,0.7-58.7,0-63.6c-0.7-4.8-14.3-31.6-22.3-38.8c-0.3-0.3-0.6-0.6-0.8-0.9c-1.1-1.5-5.2-5.8-14.5-6.7
		c-11.2-1-29.6,2.8-29.6,2.8"/>
	<path class="st0" d="M97.8,206.7l-21.9-4c0,0-9.4-4.1-19.2-3.9c-13,0.3-26.8,2.3-26.8,2.3"/>
	<polyline class="st0" points="23.6,257.4 23.7,252.7 22.3,120.6 22.4,117.3 	"/>
	<path class="st0" d="M74,160.2l3.2,111.4c0,0,17.3-18.7,18.3-28.4c1.5-14.6,1.1-54.8-1.1-60.7S83,158.5,83,158.5"/>
	<g>
		<ellipse class="st0" cx="34.1" cy="98.6" rx="16.1" ry="15.6"/>
		<ellipse class="st0" cx="34.1" cy="98.6" rx="22.3" ry="21.5"/>
	</g>
</g>
<g>
	<path class="st0" d="M150,35.1h-21.6c0,0-18.2-5.6-21.4-5.6s-5.2,2.4-5.6,5.3s-3.5,33.3-3.5,33.3s1.5,2.9,1.3,4
		c-0.2,1.1,3-1.9,3-1.9"/>
	<path class="st0" d="M117.2,67.6c0,0-1.2-2.4,0.6-5.6c1.9-3.2,3.9-5.6,2.9-6.9c-1-1.3-18,3.2-18.8,6.6c-0.8,3.4-1.4,9.3,1.7,9.3
		S117.2,67.6,117.2,67.6z"/>
	<path class="st0" d="M120.1,39.6c0,0-3,3.2-5,3.7c-1.9,0.5-7.1,1.1-8.9-0.5c-1.2-1.1-1.9-3.5-2.2-5c-0.1-0.6,0.2-1.1,0.7-1.1
		c2.8,0,11.4-0.2,12.5,0.3C118.6,37.4,121.2,37.2,120.1,39.6z"/>
	<line class="st0" x1="119.9" y1="67.3" x2="117.2" y2="67.6"/>
	<path class="st0" d="M167.4,39.3c1.5,1.6,5.8,8.2,5.8,8.2h-4.3l-2.8-2.4h-36.2l-2.8,2.4h-4.3c0,0,4.3-6.6,5.8-8.2
		C130.1,37.7,165.9,37.7,167.4,39.3z"/>
	<path class="st0" d="M146,35.1h21.6c0,0,18.2-5.6,21.4-5.6s5.2,2.4,5.6,5.3c0.4,2.9,3.5,33.3,3.5,33.3s-1.5,2.9-1.3,4
		c0.2,1.1-3-1.9-3-1.9"/>
	<path class="st0" d="M178.8,67.6c0,0,1.2-2.4-0.6-5.6s-3.9-5.6-2.9-6.9c1-1.3,18,3.2,18.8,6.6c0.8,3.4,1.4,9.3-1.7,9.3
		C189.3,71,178.8,67.6,178.8,67.6z"/>
	<path class="st0" d="M155.1,49.9c10.4-0.8,15.3,3.2,16.9,5c1.5,1.9,5.2,9.3,4.1,12.4c-1.1,3.2-24.2,3.4-24.9,3.4h-6.4
		c-0.6,0-23.8-0.3-24.9-3.4c-1.1-3.2,2.6-10.6,4.1-12.4c1.5-1.9,6.5-5.8,16.9-5H155.1z"/>
	<path class="st0" d="M179.5,31.7c-10.4,0-20.9-1-31.2-1.1c-10.7,0-21.2,1-31.9,0.9"/>
	<path class="st0" d="M172.1,33.8c0,0-18-1-24-1.1c-6.1,0-24.5,0.9-24.5,0.9"/>
	<path class="st0" d="M175.9,39.6c0,0,3,3.2,5,3.7c1.9,0.5,7.1,1.1,8.9-0.5c1.2-1.1,1.9-3.5,2.2-5c0.1-0.6-0.2-1.1-0.7-1.1
		c-2.8,0-11.4-0.2-12.5,0.3C177.4,37.4,174.8,37.2,175.9,39.6z"/>
	<line class="st0" x1="176.1" y1="67.3" x2="178.8" y2="67.6"/>
</g>
<g>
	<path class="st0" d="M186.7,322.9c0,0-11.7,14.8-11.3,16.6c0.4,1.8,14,0,15.3-2.9c1.3-2.9,0.8-9.9,0.8-9.9S188.6,322.7,186.7,322.9
		z"/>
	<path class="st0" d="M197.4,343.4c0,0-5.1-3.4-5.9-9.9"/>
	<path class="st0" d="M109.3,322.9c0,0,11.7,14.8,11.3,16.6c-0.4,1.8-14,0-15.3-2.9c-1.3-2.9-0.8-9.9-0.8-9.9
		S107.4,322.7,109.3,322.9z"/>
	<path class="st0" d="M98.6,343.4c0,0,5.1-3.4,5.9-9.9"/>
	<path class="st0" d="M113.1,326.8h5.1c0,0,4.5,11.2,8.1,14c3.6,2.9,20.4,3.4,20.4,3.4h2.7c0,0,16.8-0.5,20.4-3.4
		c3.6-2.9,8.1-14,8.1-14h5.1"/>
	<path class="st0" d="M98.9,342.9c0,0,1.1,13,2.1,21s6.8,8.6,6.8,8.6s0-1,0.8-3.6c0.8-2.6,3-3.6,3-3.6l1.5-4.9c0,0,7.6-0.5,9.3,0.3
		c1.7,0.8,1.3,3.4,1.3,3.4h22.9h2.7h22.9c0,0-0.4-2.6,1.3-3.4c1.7-0.8,9.3-0.3,9.3-0.3l1.5,4.9c0,0,2.1,1,3,3.6
		c0.8,2.6,0.8,3.6,0.8,3.6s5.7-0.5,6.8-8.6c1.1-8.1,2.1-21,2.1-21"/>
	<path class="st0" d="M100.8,362.4c0-2.6,3.4-3.9,8.3-5.5s38.4-1.6,38.4-1.6h1c0,0,33.6,0,38.4,1.6c4.9,1.6,8.3,2.9,8.3,5.5"/>
	<path class="st0" d="M118.2,326.8h8.7c0,0,11-0.3,21.9-0.3h-1.6c10.8,0,21.9,0.3,21.9,0.3h8.7"/>
</g>
<g>
	<path class="st0" d="M181.6,84.6c0,0,8.7,33.4,10.3,49.7c0.8,7.5,0,13.9,0,13.9"/>
	<path class="st0" d="M139.9,176.9c-12.5,0.9-26.9,3.9-28.1,3.9l-7.1-32.6c0,0,13.9-7.9,31.9-9.8c1-0.1,2.1-0.2,3.1-0.1l18.9,0.1
		c1.2,0,2.2,0.1,3.4,0.2c17.1,2.2,29.9,9.5,29.9,9.5l-7.1,32.6c-1,0-14-2.7-26-3.8c-4.7-0.4-9.2-0.6-12.8-0.3L139.9,176.9z"/>
	<path class="st0" d="M118.5,81.8c0,0-12.1,36.2-13.9,52.6c-0.8,7.5,0,13.9,0,13.9"/>
	<path class="st0" d="M104.5,279.3c0,0,11.9,4.8,21.7,5.6c6.8,0.5,31.4,0.5,38.2,0c9.8-0.7,27-6.8,27-6.8"/>
	<path class="st0" d="M109.1,255.8c0,0,5.1-2,13-2h46.5c7.9,0,17.5,2.4,17.5,2.4"/>
	<path class="st0" d="M192.3,280.2"/>
	<path class="st0" d="M191.1,277.5c0,0,4,8.8,2.5,16.1c-0.6,3,3.2,4.6,2.1,7.7c-0.1,0.4,0.4,3.3,0,5.9c-0.3,1.9-1.5,2.5-3,3.1
		c-0.7,0.3-5-5.5-5.8-5.2c-2.2,0.7-5,4.4-5,4.4s-18.9-0.8-25.7-0.9h-16.5c-6.8,0-25.7,0.9-25.7,0.9s-2.8-3.1-5-3.7
		c-0.9-0.3-5.2,4.9-5.9,4.6c-1.6-0.6-2.7-1.2-3-3.1c-0.4-2.7,0.1-5.6,0-5.9c-1.1-3.2,2.7-4.8,2.1-7.7c-1.6-7.3,2.5-16.1,2.5-16.1"/>
	<path class="st0" d="M140,77.9h15.2c6.5,0.7,13.5,2,17.7,2.8c2.4,0.5,8,3,11,4.9c3.7,2,7.5,4.6,7.5,4.6s2.8-3.7,4.8-0.7
		c0.9,2.8,1.9,57.5,1.9,57.5l-0.2,0.2c0,0-3.3,2.7-5.1,7.8c-2.7,7.6-4.5,19-5.7,22.7c-1.9,5.9-2.2,49.4-1.7,66.2
		c-0.5,13.7,6.6,36.1,6.6,36.1"/>
	<path class="st0" d="M156,77.9h-15.2c-6.5,0.7-13.5,2-17.7,2.8c-2.4,0.5-8,3-11,4.9c-3.7,2-7.5,4.6-7.5,4.6s-2.8-3.7-4.8-0.7
		c-0.9,2.8-1.9,57.5-1.9,57.5l0.2,0.2c0,0,3.3,2.7,5.1,7.8c2.7,7.6,4.5,19,5.7,22.7c1.9,5.9,2.2,49.4,1.7,66.2
		c0.5,13.7-6.6,36.1-6.6,36.1"/>
</g>
</svg>
