<svg width="90" height="90" viewBox="0 0 90 90" fill="none" xmlns="http://www.w3.org/2000/svg">
<g clip-path="url(#clip0_9_297)">
<circle cx="45" cy="45" r="45" fill="#E6F2FF"/>
<path d="M52.6667 30.4C52.6667 35.0392 48.9855 38.8 44.4444 38.8C39.9034 38.8 36.2222 35.0392 36.2222 30.4C36.2222 25.7608 39.9034 22 44.4444 22C48.9855 22 52.6667 25.7608 52.6667 30.4Z" fill="#E6F2FF"/>
<path d="M65 51.4C65 56.0392 61.3188 59.8 56.7778 59.8C52.2368 59.8 48.5556 56.0392 48.5556 51.4C48.5556 46.7608 52.2368 43 56.7778 43C61.3188 43 65 46.7608 65 51.4Z" fill="#E6F2FF"/>
<path fill-rule="evenodd" clip-rule="evenodd" d="M44.4444 23.375C40.6904 23.375 37.5972 26.4923 37.5972 30.4C37.5972 34.3077 40.6904 37.425 44.4444 37.425C48.1985 37.425 51.2917 34.3077 51.2917 30.4C51.2917 26.4923 48.1985 23.375 44.4444 23.375ZM34.8472 30.4C34.8472 25.0293 39.1165 20.625 44.4444 20.625C49.7724 20.625 54.0417 25.0293 54.0417 30.4C54.0417 35.7707 49.7724 40.175 44.4444 40.175C39.1165 40.175 34.8472 35.7707 34.8472 30.4ZM56.7778 44.375C53.0237 44.375 49.9306 47.4923 49.9306 51.4C49.9306 55.3077 53.0237 58.425 56.7778 58.425C57.7149 58.425 58.6108 58.2308 59.4277 57.8785C59.6619 57.5928 60.0035 57.4124 60.3711 57.3799C62.3176 56.147 63.625 53.9405 63.625 51.4C63.625 47.4923 60.5318 44.375 56.7778 44.375ZM61.5282 59.8966C60.7933 61.5653 59.3946 62.9066 56.9746 63.827C54.3071 64.8415 50.3359 65.375 44.4444 65.375C40.285 65.375 37.0988 65.1084 34.6591 64.6039C32.2245 64.1004 30.4413 63.3417 29.1762 62.2892C26.6206 60.1631 26.623 57.1989 26.6249 54.7492C26.6249 54.6824 26.625 54.616 26.625 54.55C26.625 51.238 28.9493 48.5043 32.1314 46.6757C35.3509 44.8255 39.7072 43.725 44.4444 43.725C46.453 43.725 48.3874 43.9227 50.1926 44.2888C51.9071 42.6397 54.2205 41.625 56.7778 41.625C62.1058 41.625 66.375 46.0293 66.375 51.4C66.375 55.0247 64.4304 58.2091 61.5282 59.8966ZM56.2417 61.1601C51.1663 60.8764 47.1806 56.5893 47.1806 51.4C47.1806 49.7223 47.5971 48.139 48.3324 46.7547C47.093 46.5725 45.7902 46.475 44.4444 46.475C40.0997 46.475 36.2337 47.4899 33.5016 49.06C30.7319 50.6516 29.375 52.6429 29.375 54.55C29.375 57.2824 29.449 58.9389 30.9349 60.1751C31.7253 60.8327 33.0255 61.4579 35.2159 61.9109C37.4012 62.3627 40.3817 62.625 44.4444 62.625C50.2439 62.625 53.8078 62.0893 55.997 61.2567C56.0807 61.2248 56.1623 61.1926 56.2417 61.1601ZM56.7778 47.225C57.5372 47.225 58.1528 47.8406 58.1528 48.6V50.025H59.5182C60.2776 50.025 60.8932 50.6406 60.8932 51.4C60.8932 52.1594 60.2776 52.775 59.5182 52.775H58.1528V54.2C58.1528 54.9594 57.5372 55.575 56.7778 55.575C56.0184 55.575 55.4028 54.9594 55.4028 54.2V52.775H54.0367C53.2773 52.775 52.6617 52.1594 52.6617 51.4C52.6617 50.6406 53.2773 50.025 54.0367 50.025H55.4028V48.6C55.4028 47.8406 56.0184 47.225 56.7778 47.225Z" fill="#1787FF"/>
</g>
<defs>
<clipPath id="clip0_9_297">
<rect width="90" height="90" fill="white"/>
</clipPath>
</defs>
</svg>
