<svg width="48" height="28" viewBox="0 0 48 28" fill="none" xmlns="http://www.w3.org/2000/svg">
<path d="M45.0938 5.40625H2.90625C2.28465 5.40625 1.68851 5.15932 1.24897 4.71978C0.80943 4.28024 0.5625 3.6841 0.5625 3.0625C0.5625 2.4409 0.80943 1.84476 1.24897 1.40522C1.68851 0.96568 2.28465 0.71875 2.90625 0.71875H45.0938C45.7154 0.71875 46.3115 0.96568 46.751 1.40522C47.1906 1.84476 47.4375 2.4409 47.4375 3.0625C47.4375 3.6841 47.1906 4.28024 46.751 4.71978C46.3115 5.15932 45.7154 5.40625 45.0938 5.40625ZM37.2812 16.3438H10.7188C10.0971 16.3438 9.50101 16.0968 9.06147 15.6573C8.62193 15.2177 8.375 14.6216 8.375 14C8.375 13.3784 8.62193 12.7823 9.06147 12.3427C9.50101 11.9032 10.0971 11.6563 10.7188 11.6562H37.2812C37.9029 11.6563 38.499 11.9032 38.9385 12.3427C39.3781 12.7823 39.625 13.3784 39.625 14C39.625 14.6216 39.3781 15.2177 38.9385 15.6573C38.499 16.0968 37.9029 16.3438 37.2812 16.3438ZM27.9062 27.2812H20.0938C19.4721 27.2812 18.876 27.0343 18.4365 26.5948C17.9969 26.1552 17.75 25.5591 17.75 24.9375C17.75 24.3159 17.9969 23.7198 18.4365 23.2802C18.876 22.8407 19.4721 22.5938 20.0938 22.5938H27.9062C28.5279 22.5938 29.124 22.8407 29.5635 23.2802C30.0031 23.7198 30.25 24.3159 30.25 24.9375C30.25 25.5591 30.0031 26.1552 29.5635 26.5948C29.124 27.0343 28.5279 27.2812 27.9062 27.2812Z" fill="#CCCCCC"/>
</svg>
