<svg width="90" height="90" viewBox="0 0 90 90" fill="none" xmlns="http://www.w3.org/2000/svg">
<g clip-path="url(#clip0_9_282)">
<circle cx="45" cy="45" r="45" fill="#E6F2FF"/>
<path fill-rule="evenodd" clip-rule="evenodd" d="M53.6744 26.137C57.5878 28.1443 60.4319 31.0579 62.7085 33.7406L62.7636 33.8056L62.8103 33.8769C63.8183 35.4156 65.545 38.9234 67.1447 42.4374C68.753 45.9705 70.3098 49.6805 70.9627 51.6739C71.5407 53.4387 71.5432 55.7486 70.7639 57.6737C69.9529 59.6772 68.2199 61.375 65.4229 61.375H33.9097C29.9563 61.375 27.0249 59.3114 25.0559 56.4152C23.1128 53.5573 22.0592 49.8423 21.7228 46.2466C20.724 35.5739 27.4968 25.4313 38.4266 23.9339C44.8033 23.0603 49.7344 24.1161 53.6744 26.137ZM52.4194 28.5839C49.0103 26.8354 44.652 25.8567 38.7998 26.6585C29.5437 27.9265 23.5782 36.5588 24.4608 45.9903C24.7689 49.2825 25.725 52.5083 27.33 54.8691C28.9092 57.1917 31.0644 58.625 33.9097 58.625H65.4229C66.859 58.625 67.726 57.8495 68.2149 56.6418C68.7355 55.3557 68.738 53.7165 68.3493 52.5298C68.3231 52.4499 68.2952 52.3666 68.2657 52.2802H57.1918C50.5702 52.2802 46.1751 47.0161 44.4562 41.3792C44.4311 43.4163 42.7946 45.1001 40.7297 45.1001C38.6489 45.1001 37.003 43.3901 37.003 41.3317C37.003 39.2734 38.6489 37.5634 40.7297 37.5634C42.1391 37.5634 43.349 38.3478 43.983 39.4937C43.9283 39.2169 43.8801 38.9406 43.8385 38.6652C43.5967 37.066 44.4255 35.8271 45.4511 35.079C46.4513 34.3495 47.7551 33.9733 48.9608 33.9733L59.2454 33.9733C57.3573 31.9323 55.1668 29.9932 52.4194 28.5839ZM61.2946 36.7233C62.2014 38.3839 63.4299 40.9146 64.6418 43.5768C65.5924 45.665 66.5061 47.775 67.2182 49.5302H65.4645L59.3691 36.7233L61.2946 36.7233ZM56.3235 36.7233L55.1968 36.7233L61.6855 49.5302H62.4189L56.3235 36.7233ZM58.6026 49.5302L52.114 36.7233L49.9621 36.7233L56.0209 49.4531C56.4028 49.5039 56.7932 49.5302 57.1918 49.5302H58.6026ZM52.3135 48.0627L47.1617 37.2384C47.1309 37.2587 47.1009 37.2795 47.0717 37.3007C46.6174 37.6321 46.5114 37.9489 46.5576 38.2542C47.1677 42.2904 49.2447 46.0698 52.3135 48.0627ZM40.7297 40.3134C40.213 40.3134 39.753 40.7465 39.753 41.3317C39.753 41.917 40.213 42.3501 40.7297 42.3501C41.2465 42.3501 41.7065 41.917 41.7065 41.3317C41.7065 40.7465 41.2465 40.3134 40.7297 40.3134Z" fill="#1787FF"/>
</g>
<defs>
<clipPath id="clip0_9_282">
<rect width="90" height="90" fill="white"/>
</clipPath>
</defs>
</svg>
