<svg width="30" height="27" viewBox="0 0 30 27" fill="none" xmlns="http://www.w3.org/2000/svg">
<path d="M28.125 0H1.875C1.37772 0 0.900805 0.203188 0.549175 0.564865C0.197544 0.926543 0 1.41708 0 1.92857V25.0714C0 25.5829 0.197544 26.0735 0.549175 26.4351C0.900805 26.7968 1.37772 27 1.875 27H28.125C28.6223 27 29.0992 26.7968 29.4508 26.4351C29.8025 26.0735 30 25.5829 30 25.0714V1.92857C30 1.41708 29.8025 0.926543 29.4508 0.564865C29.0992 0.203188 28.6223 0 28.125 0ZM6.4875 3.85714C7.04376 3.85714 7.58753 4.02681 8.05004 4.34468C8.51255 4.66255 8.87304 5.11435 9.08591 5.64295C9.29878 6.17155 9.35448 6.75321 9.24596 7.31437C9.13744 7.87553 8.86957 8.39099 8.47624 8.79556C8.0829 9.20013 7.58176 9.47565 7.03619 9.58727C6.49062 9.69889 5.92512 9.64161 5.4112 9.42265C4.89729 9.2037 4.45803 8.83291 4.14899 8.35719C3.83995 7.88146 3.675 7.32215 3.675 6.75C3.675 5.98277 3.97132 5.24696 4.49876 4.70444C5.02621 4.16192 5.74158 3.85714 6.4875 3.85714ZM3.75 22.1786V18.225L9.375 12.3621C9.55065 12.1825 9.78826 12.0817 10.0359 12.0817C10.2836 12.0817 10.5212 12.1825 10.6969 12.3621L13.125 14.8018L5.925 22.1786H3.75ZM26.25 22.1786H8.57812L14.4187 16.1711L19.4813 10.9639C19.6569 10.7843 19.8945 10.6835 20.1422 10.6835C20.3899 10.6835 20.6275 10.7843 20.8031 10.9639L26.25 16.5664V22.1786Z" fill="#699BF7"/>
</svg>
