<?xml version="1.0" encoding="utf-8"?>
<!-- Generator: Adobe Illustrator 21.0.0, SVG Export Plug-In . SVG Version: 6.00 Build 0)  -->
<svg version="1.1" id="Слой_3" xmlns="http://www.w3.org/2000/svg" xmlns:xlink="http://www.w3.org/1999/xlink" x="0px" y="0px"
	 viewBox="0 0 296 415" style="enable-background:new 0 0 296 415;" xml:space="preserve">
<style type="text/css">
	.st0{fill:none;stroke:#3F4D51;stroke-width:1.0073;stroke-linejoin:round;stroke-miterlimit:10;}
	.st1{fill:none;stroke:#3F4D51;stroke-width:0.415;stroke-linejoin:round;stroke-miterlimit:10;}
	.st2{enable-background:new    ;}
	.st3{fill:#3F4D51;}
</style>
<g>
	<path class="st0" d="M136.1,82.5c0,0-22.8-4.9-37-5.3s-40.9,2.5-40.9,2.5l-4.6-18.1c0,0,11.7-6.7,30.5-12.4
		c16.8-5.1,53.8-10.4,61.7-11.5c1-0.1,2-0.2,3-0.2h2.9c1,0,2,0.1,3,0.2c7.9,1.1,45,6.5,61.7,11.5c18.8,5.7,30.5,12.4,30.5,12.4
		l-4.4,18.1c0,0-26.6-2.8-40.9-2.5c-14.2,0.4-36.3,5.1-36.3,5.1"/>
	<path class="st0" d="M128.6,40.3L124,68.7c0,0,0.4,2.1,6,8.9c5.7,6.7,20.2,12.1,20.2,12.1h0.2c0,0,14.6-5.3,20.2-12.1
		c5.7-6.7,6-8.9,6-8.9L172,40.3"/>
	<path class="st0" d="M137.3,83.3c0,0,3.4,89.1,4.8,93.4c1.4,4.3,6,5.7,7.8,5.7h0.2c1.8,0,6.4-1.4,7.8-5.7
		c1.4-4.3,4.7-92.7,4.7-92.7"/>
	<g>
		<path class="st0" d="M226,201.5c0,0,7.6,0.1,11.2-1.7c3.6-1.8,8.9-23.8,9.2-32.7c0.7-17.4-9.2-25.6-9.2-25.6"/>
		<path class="st0" d="M206.4,85c-1.1,0-24.9,0-30.9,6.4s-7.5,29.5-5.7,37.3s11.4,22.4,16,25.6h41.1c4.6-3.2,14.2-17.8,16-25.6
			s0.4-30.9-5.7-37.3S207.3,85,206.4,85"/>
		<path class="st0" d="M186.5,201.5c0,0-7.5,0.1-11-1.7c-3.6-1.8-8.9-23.8-9.2-32.7c-0.7-17.4,9.2-25.6,9.2-25.6"/>
		<path class="st0" d="M214.5,207.6h-16.4c-7,0-12.8-5.7-12.8-12.8v-10.2c0-2.8,2.3-5.1,5.1-5.1H222c2.8,0,5.1,2.3,5.1,5.1v10.2
			C227.2,201.9,221.5,207.6,214.5,207.6z"/>
	</g>
	<g>
		<path class="st0" d="M111.9,201.5c0,0,7.9,0,11.4-1.7s8.9-23.8,9.2-32.7c0.7-17.4-9.2-25.6-9.2-25.6"/>
		<path class="st0" d="M92.6,85c-1.1,0-24.9,0-30.9,6.4s-7.5,29.5-5.7,37.3s11.4,22.4,16,25.6h41.1c4.6-3.2,14.2-17.8,16-25.6
			c1.8-7.8,0.4-30.9-5.7-37.3C117.3,85,93.5,85,92.6,85"/>
		<path class="st0" d="M73,201.7c0,0-7.7-0.1-11.2-1.9s-9-23.8-9.3-32.7c-0.7-17.4,9.2-25.6,9.2-25.6"/>
		<path class="st0" d="M100.7,207.6H84.3c-7,0-12.8-5.7-12.8-12.8v-10.2c0-2.8,2.3-5.1,5.1-5.1h31.6c2.8,0,5.1,2.3,5.1,5.1v10.2
			C113.4,201.9,107.7,207.6,100.7,207.6z"/>
	</g>
	<path class="st0" d="M213,333h-16.4c-7,0-12.8-5.7-12.8-12.8V310c0-2.8,2.3-5.1,5.1-5.1h31.6c2.8,0,5.1,2.3,5.1,5.1v10.2
		C225.8,327.3,220.1,333,213,333z"/>
	<path class="st0" d="M159.8,334h-16.4c-7,0-12.8-5.7-12.8-12.8V311c0-2.8,2.3-5.1,5.1-5.1h31.6c2.8,0,5.1,2.3,5.1,5.1v10.2
		C172.5,328.3,166.8,334,159.8,334z"/>
	<path class="st0" d="M106.1,333.7H89.7c-7,0-12.8-5.7-12.8-12.8v-10.2c0-2.8,2.3-5.1,5.1-5.1h31.6c2.8,0,5.1,2.3,5.1,5.1v10.2
		C118.9,328,113.2,333.7,106.1,333.7z"/>
	<path class="st0" d="M224,327.1c0,0,8.6,1.6,14.3-3.1c5.7-4.6,8.2-30.5,6.7-38.7c-2.8-16.3-8.1-17.5-8.1-17.5"/>
	<path class="st0" d="M171,307.1c0,0-0.3-20.6,0.1-29.8c0.4-9.2,1.8-56.5,8.5-61.8"/>
	<line class="st0" x1="132.2" y1="280.6" x2="170.7" y2="280.1"/>
	<path class="st0" d="M78.4,327.7c0,0-8.1,1-13.8-3.6s-8.2-30.5-6.7-38.7c2.8-16.3,8.4-17.9,8.4-17.9"/>
	<path class="st0" d="M132.1,307.9c0,0,0.1-21.5-0.2-30.7c-0.4-9.2-1.8-56.5-8.5-61.8"/>
	<path class="st0" d="M131.8,283.2c0,0-6.4-2.8-21.3-3.2s-34.1-0.4-34.1-0.4s-13.9-9.2-16.3-32.7c-1.2-11.6,3.9-30.5,10.7-33
		c6.7-2.5,52.6,1.4,52.6,1.4s3.6-1.4,7.1-1.4c3.6,0,38.6,0,42.1,0c3.6,0,7.1,1.4,7.1,1.4s45.8-3.9,52.6-1.4
		c6.7,2.5,11.9,21.5,10.7,33c-2.5,23.4-16.3,32.7-16.3,32.7s-19.2,0-34.1,0.4s-21.3,3.2-21.3,3.2"/>
	<path class="st0" d="M153.8,338.7c0,0-57.9,0.4-64.6-0.7s-28.1-3.9-28.1-3.9l-4.3,21c0,0,39.8,21.7,89.9,22.7h9.1
		c50.1-1.1,89.9-22.7,89.9-22.7l-4.3-21c0,0-21.3,2.8-28.1,3.9c-6.7,1.1-64.6,0.7-64.6,0.7"/>
	<path class="st0" d="M117.9,326.5c0,0,10.8,0.1,12.6-6.3"/>
	<path class="st0" d="M185.5,326.7c0,0-11.1,1.4-12.9-5"/>
	<g>
		<path class="st1" d="M231.5,88.6c0,0-4.6,3.9-7.8,16.7s-6.4,49-6.4,49s10.7,11.7,9.6,28.8"/>
		<path class="st1" d="M180.7,88.9c0,0,4.6,3.9,7.8,16.7s6.4,49,6.4,49s-10.7,11.7-9.6,28.8"/>
		<path class="st1" d="M244.6,179.5c0,0-1.6,0.2-4.6,0.7c-4.3,0.7-10.7,8.2-12.8,6"/>
		<path class="st1" d="M167.8,179.5c0,0,1.6,0.2,4.6,0.7c4.3,0.7,10.7,8.2,12.8,6"/>
		<path class="st1" d="M191,117.7c0,0,16.7-7.1,30.2,0.7"/>
	</g>
	<g>
		<path class="st1" d="M118,88.6c0,0-4.6,3.9-7.8,16.7c-3.2,12.8-6.4,49-6.4,49s10.7,11.7,9.6,28.8"/>
		<path class="st1" d="M66.7,88.3c0,0,5.1,4.5,8.3,17.3c3.2,12.8,6.4,49,6.4,49s-10.7,11.7-9.6,28.8"/>
		<path class="st1" d="M131.2,179.5c0,0-1.6,0.2-4.6,0.7c-4.3,0.7-10.7,8.2-12.8,6"/>
		<path class="st1" d="M54.3,179.5c0,0,1.6,0.2,4.6,0.7c4.3,0.7,10.7,8.2,12.8,6"/>
		<path class="st1" d="M77.3,117.7c0,0,16.9-7.1,30.4,0.7"/>
	</g>
	<g>
		<path class="st1" d="M231.5,214c0,0-6,4.8-9.2,17.6s-6,48.5-6,48.5s10.3,12.2,9.2,29.3"/>
		<path class="st1" d="M179.4,215.3c0,0,4.6,3.9,7.8,16.7s6.4,49,6.4,49s-10.7,11.7-9.6,28.8"/>
		<path class="st1" d="M244.5,305.7c0,0-2.8,0.3-5.8,0.8c-4.3,0.7-10.7,8.2-12.8,6"/>
		<path class="st1" d="M166.5,305.9c0,0,1.6,0.2,4.6,0.7c4.3,0.7,10.7,8.2,12.8,6"/>
		<path class="st1" d="M189.7,244.1c0,0,16.7-7.1,30.2,0.7"/>
	</g>
	<g>
		<path class="st1" d="M123.5,215.4c0,0-5.2,3.1-8.4,15.8c-3.2,12.8-6.4,49-6.4,49s10.7,11.7,9.6,28.8"/>
		<path class="st1" d="M71.1,214c0,0,5.6,4.8,8.8,17.6c3.2,12.8,6,48.4,6,48.4s-10.3,12.4-9.2,29.4"/>
		<path class="st1" d="M134.9,306.1c0,0-1.9,0.6-4.9,1.1c-4.3,0.7-9.2,7.2-11.4,5.1"/>
		<path class="st1" d="M58.5,305.5c0,0,2.4,0.2,5.3,0.7c4.3,0.7,10.7,8.2,12.8,6"/>
		<path class="st1" d="M82,243.8c0,0,17.1-7.2,30.6,0.6"/>
	</g>
	<path class="st1" d="M129.9,243.5c0,0,14.6-1.5,21-1.5s21.7,1.9,21.7,1.9"/>
</g>
<g class="st2">
	<path class="st3" d="M121.6,27.5V13.1h9.7v1.7h-7.8v4.4h6.7V21h-6.7v6.5H121.6z"/>
	<path class="st3" d="M133.8,27.5V13.1h6.3c1.3,0,2.2,0.1,2.9,0.4s1.2,0.7,1.6,1.4s0.6,1.4,0.6,2.2c0,1-0.3,1.9-1,2.6
		s-1.7,1.1-3,1.3c0.5,0.2,0.9,0.5,1.1,0.7c0.6,0.5,1.1,1.1,1.6,1.9l2.5,3.9H144l-1.9-3c-0.6-0.9-1-1.5-1.4-2s-0.7-0.8-1-1
		s-0.6-0.3-0.9-0.4c-0.2,0-0.6-0.1-1.1-0.1h-2.2v6.4H133.8z M135.7,19.5h4.1c0.9,0,1.5-0.1,2-0.3s0.9-0.5,1.1-0.9s0.4-0.8,0.4-1.3
		c0-0.7-0.2-1.2-0.7-1.7s-1.3-0.7-2.3-0.7h-4.5V19.5z"/>
	<path class="st3" d="M147.6,20.5c0-2.4,0.6-4.2,1.9-5.6c1.3-1.3,2.9-2,4.9-2c1.3,0,2.5,0.3,3.6,0.9c1.1,0.6,1.9,1.5,2.4,2.6
		s0.8,2.4,0.8,3.8c0,1.5-0.3,2.8-0.9,3.9s-1.4,2-2.5,2.6s-2.2,0.9-3.5,0.9c-1.3,0-2.6-0.3-3.6-1c-1.1-0.7-1.9-1.5-2.4-2.7
		S147.6,21.7,147.6,20.5z M149.6,20.5c0,1.7,0.5,3.1,1.4,4.1s2.1,1.5,3.5,1.5c1.4,0,2.6-0.5,3.5-1.5c0.9-1,1.4-2.4,1.4-4.3
		c0-1.2-0.2-2.2-0.6-3.1c-0.4-0.9-1-1.5-1.7-2c-0.8-0.5-1.6-0.7-2.6-0.7c-1.3,0-2.5,0.5-3.5,1.4S149.6,18.4,149.6,20.5z"/>
	<path class="st3" d="M163.7,27.5V13.1h1.9l7.5,11.2V13.1h1.8v14.3H173l-7.5-11.3v11.3H163.7z"/>
	<path class="st3" d="M181.8,27.5V14.8h-4.7v-1.7h11.3v1.7h-4.7v12.6H181.8z"/>
</g>
<g class="st2">
	<path class="st3" d="M127.7,403.6v-14.3h5.4c1.1,0,2,0.1,2.6,0.4s1.2,0.7,1.6,1.3s0.6,1.2,0.6,1.9c0,0.6-0.2,1.2-0.5,1.7
		s-0.8,1-1.5,1.3c0.9,0.3,1.5,0.7,2,1.3s0.7,1.3,0.7,2.2c0,0.7-0.1,1.3-0.4,1.9s-0.6,1-1,1.3s-0.9,0.5-1.6,0.7s-1.4,0.2-2.3,0.2
		H127.7z M129.6,395.3h3.1c0.8,0,1.4-0.1,1.8-0.2c0.5-0.1,0.8-0.4,1.1-0.7s0.4-0.7,0.4-1.3c0-0.5-0.1-0.9-0.3-1.3s-0.6-0.6-1-0.7
		s-1.1-0.2-2.2-0.2h-2.9V395.3z M129.6,401.9h3.6c0.6,0,1,0,1.3-0.1c0.4-0.1,0.8-0.2,1.1-0.4s0.5-0.4,0.7-0.8s0.3-0.8,0.3-1.2
		c0-0.5-0.1-1-0.4-1.4s-0.7-0.7-1.1-0.8s-1.2-0.2-2.1-0.2h-3.3V401.9z"/>
	<path class="st3" d="M139.5,403.6l5.5-14.3h2l5.9,14.3h-2.2l-1.7-4.3h-6l-1.6,4.3H139.5z M143.7,397.7h4.9l-1.5-4
		c-0.5-1.2-0.8-2.2-1-3c-0.2,0.9-0.4,1.8-0.8,2.7L143.7,397.7z"/>
	<path class="st3" d="M164.7,398.6l1.9,0.5c-0.4,1.6-1.1,2.7-2.1,3.6c-1,0.8-2.3,1.2-3.8,1.2c-1.5,0-2.8-0.3-3.8-0.9
		s-1.7-1.5-2.2-2.7c-0.5-1.2-0.8-2.5-0.8-3.8c0-1.5,0.3-2.8,0.9-3.9c0.6-1.1,1.4-2,2.4-2.5c1.1-0.6,2.2-0.9,3.5-0.9
		c1.4,0,2.6,0.4,3.6,1.1s1.7,1.8,2,3.1l-1.9,0.4c-0.3-1-0.8-1.8-1.4-2.3c-0.6-0.5-1.4-0.7-2.4-0.7c-1.1,0-2,0.3-2.8,0.8
		c-0.7,0.5-1.3,1.2-1.6,2.1c-0.3,0.9-0.4,1.8-0.4,2.7c0,1.2,0.2,2.3,0.5,3.2c0.4,0.9,0.9,1.6,1.7,2c0.7,0.4,1.6,0.7,2.4,0.7
		c1.1,0,2-0.3,2.7-0.9C163.9,400.7,164.4,399.8,164.7,398.6z"/>
	<path class="st3" d="M168.8,403.6v-14.3h1.9v7.1l7.1-7.1h2.6l-6,5.8l6.3,8.5h-2.5l-5.1-7.2l-2.3,2.3v5H168.8z"/>
</g>
</svg>
