<?xml version="1.0" encoding="UTF-8"?>
<svg version="1.1" viewBox="0 0 2000 2000" width="500" height="500" xmlns="http://www.w3.org/2000/svg">
<path transform="translate(0)" d="m0 0h2e3v2e3h-2e3z" fill="#FEFEFE"/>
<path transform="translate(807,619)" d="m0 0h47l41 3 44 5 33 5 31 7 37 12 31 13 32 15 26 12 16 8 25 12 19 10 34 18 14 7 6 1h22l34-1h45l41 1 40 2 48 5 36 6 31 7 24 7 26 9 21 9 25 12 18 10 27 18 16 13 11 9 12 12 6 12v12l-6 17-8 17-4 14v15l3 9 6 10 5 8-1 8-5 6-16 8-19 5-27 5-34 4-30 2-55 2-29 1-9 3-15 9-11 5 4 1 47 2 67 3 14 1 1 2-16 3-145 4-142 2h-723l-149-2-100-3-8-1h-25l-3-3 70-5 57-2h6l-3-3-10-5-11-8-10-9-9-9-9-12-4-4-10-5-28-11-32-15-16-10-4-5v-8l6-5 11-6h2l-2-8-13-25-6-17-3-17 1-21 4-18 6-16 10-21 7-12-1-7-6-8-4-9v-10l4-7 6-5 11-4 30-5 53-6 57-4 36-2 15-3 25-9 34-13 34-12 37-12 42-12 48-12 33-6 35-4z" fill="#02032D"/>
<path transform="translate(1101,756)" d="m0 0h83l3 1h89l47 1 42 2 39 4 36 6 26 6 31 9 29 11 29 13 28 15 24 16 14 11 13 11 5 4-1-4-6-8-21-21-16-12-15-10-15-9-21-11-29-12-25-9-1-2 8 1 26 6 33 10 25 9 29 13 23 12 22 14 18 13 15 13 8 7 8 9v13l-5 15-3 6-5 2-65 6-17 3-12 6-7 8-10 19-7 12-5 1-4-5v-8l4-13 7-12 11-12 8-6 10-5 11-3 29-3 43-3 5-1v-3l-89 1-16 4-10 6-7 6-7 11-7 19-3 12v10l4 7 5 4 11 5 11 2 41 2 5 3 2 13-5 2-32 4-41 3-25 1-37 1h-43l-1-3 6-16 5-20 2-14 1-19v-13l-3-21-6-19-6-14-6-10-8-11-9-10-9-9-15-11-16-9-14-6-11-3-16-2h-14l-19 2-19 5-19 8-14 8-11 8-11 10-10 13-8 14-6 14-5 17-4 24v9l-1 10-1 2-8 1-49-2-3-5-10-31-10-28-10-21-12-16-7-7-13-9-16-8-8-5-4-15-6-22-4-10-3-7z" fill="#FEFEFE"/>
<path transform="translate(476,714)" d="m0 0h67l48 3 39 4 27 4 30 5 1 1v16l-3 45-1 3-9 2-28 4-18 5-13 7-6 7-2 5-1 9 4 18 7 17 9 16 7 9 9 10 11 10 13 8 14 6 13 3 15 2 262 14 33 3 21 4 3 2v4l-5 2-28 3h-31l-101-2-28-1-57-1-82-2-67-2h-29l-4-1-2-5-3-28-5-23-4-12-8-18-12-18-14-15-13-11-15-9-15-7-16-4-8-1h-26l-17 3-15 5-21 11-14 11-12 12-10 15-8 15-5 15-3 15-2 24-2 4-23-23-10-13-8-14-5-12-2-9v-10l4-12 10-25 5-20 1-7v-23l-4-13-5-12 1-5 6-3 25-5 46-7 43-5 24-2z" fill="#FDFDFD"/>
<path transform="translate(491,510)" d="m0 0h1018l6 4 1 3 1 41v169h-38l-1-1-1-176h-955l-1 120h-20l-18-1v-150l3-6z" fill="#024CB4"/>
<path transform="translate(484,1258)" d="m0 0h37l1 49 16 4 218 65 38 11 29 9 135 40 40 12 7-1 67-20 51-15 50-15 141-42 158-47 5-2 1-47 2-1h36l1 1v68l-3 7-6 5-11 5-138 41-48 14-26 8-48 14-29 9-192 57-10 2h-12l-21-5-440-131-36-11-8-5-5-6-1-4v-68z" fill="#024CB4"/>
<path transform="translate(778,802)" d="m0 0h75l48 3 49 5 35 5 29 6 16 5 16 6 6 4 2 8 3 45-2 1h-12l-61-5-41-3-52-3-46-3v2l55 7 86 11 56 8 14 3 2 1v22l-2 4-7 1-26-1-142-4-51-1-55-2-16-1-5-3-13-18-18-27-12-21-9-19-7-21v-5l15-3 30-4z" fill="#FEFEFE"/>
<path transform="translate(1332,834)" d="m0 0 15 1 16 4 16 8 13 10 7 7 7 10 6 11 5 13 3 12 1 8v19l-4 17-5 12-6 10-8 10-8 8-11 8-16 8-14 4-8 1h-15l-16-3-16-6-10-6-10-8-7-7-10-15-5-11-4-15-2-14 1-18 3-14 4-11 9-16 11-12 7-7 13-8 12-5 16-4z" fill="#02032E"/>
<path transform="translate(462,839)" d="m0 0h17l16 3 12 5 9 5 9 7 10 10 9 13 6 13 5 20 1 7v12l-3 17-5 15-7 12-8 10-11 11-13 8-11 5-11 3-8 1h-11l-14-2-16-6-13-7-11-9-11-13-6-10-6-16-3-16v-16l4-20 5-13 8-15 11-12 9-8 12-7 14-5z" fill="#040530"/>
<path transform="translate(694,732)" d="m0 0 11 1 34 7 37 6 45 5 39 3 53 2 64 1h51l5 2 3 4 7 19 6 24v4l-14-2-36-6-42-4-63-3h-10l-5-1h-26l-57-1-21-1-3-6-3-8-5-6-10-4h-25l-10 4-4 6-4 14-2 2-16 1-3-3v-14l3-44z" fill="#FEFEFE"/>
<path transform="translate(652,1017)" d="m0 0h88l515 3 7 4 18 13 3 3-35 1h-636l1-3 21-10 15-9z" fill="#FEFEFE"/>
<path transform="translate(596,959)" d="m0 0h17l150 7 444 23 5 2 3 3 1 4-1 1h-111l-77-2-69-2-25-1-45-1-92-3-43-1-25-1h-39l-10 3-10 7-2 2-16 2-65 2-1-5 5-19 3-19z" fill="#FEFEFE"/>
<path transform="translate(607,1107)" d="m0 0h35l25 1 10 4 6 7 4 11v19l-5 9 1 5 4 9v19l-4 9-6 7-8 4-5 1h-97l-4-1v-103z" fill="#024CB4"/>
<path transform="translate(797,634)" d="m0 0h32l19 2 21 5 19 7 19 9 21 13 21 14 19 14 14 11 13 11 11 9 12 11 8 7 2 2v3h-26l-7-4-11-10-14-11-13-11-18-13-17-12-25-15-15-8-26-9-23-4-21-1-28 2-44 8-51 11-70 17-7 2 12-2 61-12 3 1v37h-7l-32-6-29-4-20-2-48-2v-2l53-20 40-14 45-14 49-12 28-5z" fill="#FEFEFE"/>
<path transform="translate(900,1107)" d="m0 0h41l22 1 10 4 7 9 3 9v23l-3 9-2 2 1 5 4 8v34l-4 1h-8l-5-1-1-32-2-3-5-1h-82l-1 36-8 1-8-1-1-2v-100l1-1z" fill="#024CB4"/>
<path transform="translate(1070,1107)" d="m0 0 5 1 9 11 7 11 8 12 17 25 16 24 9 13 4 6v2h-18l-5-5-10-15v-2h-82l-2 5-8 11-3 5-2 1h-18l2-5 19-28 8-12 13-19 25-37 3-3z" fill="#024CB4"/>
<path transform="translate(1223,1107)" d="m0 0 6 1 6 7 24 36 21 31 17 25 2 5h-18l-6-7-8-12-3-3h-79l-14 21-3 1h-16l1-5 21-31 8-12 11-16 16-24 7-10 5-6z" fill="#024CB4"/>
<path transform="translate(682,814)" d="m0 0h6l9 26 7 16 10 18 11 17 13 19 9 13v2h-15l-18-2-14-4-16-8-9-7-7-6-10-14-8-17-5-17v-12l6-8 9-7 11-5z" fill="#FEFEFE"/>
<path transform="translate(1441,791)" d="m0 0h21l23 3 25 6 21 7 15 7 17 9 27 18 13 10 2 6-5 5h-26l-24-3-17-5-18-8-18-10-22-14-17-12-14-10-4-4z" fill="#020634"/>
<path transform="translate(1317,1108)" d="m0 0h16v43h56l26-1 5-3 3-6 1-32 1-1h15l1 4v26l-2 12-6 9 7 15 1 8v29l-6 1-10-1-1-1-1-32-4-6-6-3-80-1v43l-2 1h-13l-1-1z" fill="#024CB4"/>
<path transform="translate(709,1108)" d="m0 0h16l1 71 2 8 5 5 4 2h68l7-4 3-6 1-6 1-70h16v75l-2 8-5 8-5 5-9 6-10 2h-62l-10-2-10-6-6-7-4-8-1-5z" fill="#024CB4"/>
<path transform="translate(1332,834)" d="m0 0 15 1 16 4 16 8 13 10 7 7 7 10 6 11 5 13 3 12 1 8v19l-4 17-5 12-6 10-8 10-8 8-11 8-16 8-14 4-8 1h-15l-16-3-16-6-10-6-10-8-7-7-10-15-5-11-4-15-2-14 1-18 3-14 4-11 9-16 11-12 7-7 13-8 12-5 16-4zm-1 7-17 3-12 5-11 7-7 7-7 6-10 15-7 16-3 13v26l4 16 8 17 8 10 8 9 13 9 13 6 13 3h20l16-4 16-8 10-8 10-10 9-14 5-12 3-11 1-6v-24l-5-19-7-14-11-14-9-8-14-9-14-5-14-2z" fill="#FEFEFE"/>
<path transform="translate(462,839)" d="m0 0h17l16 3 12 5 9 5 9 7 10 10 9 13 6 13 5 20 1 7v12l-3 17-5 15-7 12-8 10-11 11-13 8-11 5-11 3-8 1h-11l-14-2-16-6-13-7-11-9-11-13-6-10-6-16-3-16v-16l4-20 5-13 8-15 11-12 9-8 12-7 14-5zm4 6-16 4-16 9-13 11-10 14-6 12-5 17-1 6v22l5 19 7 14 10 13 8 8 14 9 11 5 9 2h21l11-3 16-8 8-6 10-9 7-9 8-15 4-12 1-6v-26l-3-14-5-12-7-12-9-11-14-11-14-7-16-4z" fill="#FEFEFE"/>
<path transform="translate(876,1124)" d="m0 0h84l5 3 1 3v21l-2 5-2 1-9 1h-76l-2-1v-32z" fill="#FEFEFE"/>
<path transform="translate(457,726)" d="m0 0h66l44 3 35 5v3l-5 3-15 2h-29l-52-3-20-1h-26l-47 2-39 4-31 4h-6l-2-1v-2l28-6 27-5 38-5z" fill="#020634"/>
<path transform="translate(580,1124)" d="m0 0h84l4 2 2 4v14l-2 5-3 2-55 1h-30l-1-1v-26z" fill="#FEFEFE"/>
<path transform="translate(580,1168)" d="m0 0h84l4 2 2 4v15l-3 5-2 1-85 1-1-1v-26z" fill="#FEFEFE"/>
<path transform="translate(1146,947)" d="m0 0h48l8 1 3 9 4 20v2l-5 1-47-3-5-3-7-24z" fill="#FEFEFE"/>
<path transform="translate(999,1326)" d="m0 0 3 1 7 21 26 1-2 4-18 12 2 9 5 14v3l-5-2-15-11-5 1-16 11-4 1 7-21v-5l-19-14-1-2 27-1 7-21z" fill="#024CB4"/>
<path transform="translate(1452,797)" d="m0 0 17 1 16 5 14 7 18 14 13 8 16 6 17 4 18 3 10 4 5 4v2h-19l-22-3-11-3-19-7-16-8-14-8-21-13-15-10-7-4z" fill="#FEFEFE"/>
<path transform="translate(1316,789)" d="m0 0h29l19 3 17 5 16 7 13 8 12 9 10 9 9 10 11 16 8 15 7 21 4 20 1 12-1 2h-2l-4-24-4-16-6-15-8-15-10-13-9-10-13-12-19-12-15-7-14-5-15-3-10-1h-22l-18 3-18 5-18 8-16 10-13 11-11 8-2 1h-20l-42-4-1-2h58l8-2 6-4 12-10 15-10 17-8 15-5 12-3z" fill="#020F44"/>
<path transform="translate(1224,1131)" d="m0 0 4 2 11 18 11 15 2 3v3l-3 1h-51l-1-2 8-12 11-16z" fill="#FEFEFE"/>
<path transform="translate(1070,1131)" d="m0 0 5 5 9 13 11 16 3 5v2l-7 1h-47l1-5 15-22z" fill="#FEFEFE"/>
<path transform="translate(1058,841)" d="m0 0 6 2 10 9 9 13 8 14 5 14v2l-16-1-16-2-2-1-1-3-2-33z" fill="#FEFEFE"/>
<path transform="translate(894,1325)" d="m0 0h2l4 10 3 8 20 1v3l-14 9v7l4 12v3l-5-2-9-7-7-1-11 9-4-1 5-14v-5l-11-8-4-4 1-1 18-1 3-3 3-9z" fill="#024CB4"/>
<path transform="translate(867,633)" d="m0 0h16l32 3 35 5 20 4 13 4v2h-13l-34 2-11 1h-9l-14-5-17-8-17-6z" fill="#FEFEFE"/>
<path transform="translate(1102,1325)" d="m0 0 3 1 5 16 1 1 20 1v3l-15 10 2 9 3 9v3l-5-2-9-7-6-1-14 10-2-2 5-14v-5l-12-9-2-1v-3l18-1 3-3 3-9z" fill="#024CB4"/>
<path transform="translate(1062,909)" d="m0 0 17 4 16 6 9 5 8 6 3 5v2h-24l-28-2-2-2v-23z" fill="#FEFEFE"/>
<path transform="translate(455,795)" d="m0 0h26l18 3 16 5 16 7 14 9 15 13 10 11 9 13 5 10-1 3-12-17-13-15-8-8-15-11-14-8-19-7-9-2-9-1h-29l-18 3-18 6-16 8-9 6-5 4h-2v2l-8 7-8 8v-3l7-9h2l2-4 13-11 11-7 12-6 20-6z" fill="#021046"/>
<path transform="translate(1641,980)" d="m0 0h57l2 3-3 3-25 6-15 3h-8l-5-5-4-7z" fill="#FEFEFE"/>
<path transform="translate(1330,913)" d="m0 0h9l6 4 3 4 1 3v7l-3 6-7 3h-9l-7-6-2-6 1-7 5-6z" fill="#FEFEFE"/>
<path transform="translate(466,916)" d="m0 0h9l6 4 3 5 1 7-3 6-8 5h-6l-6-4-4-6v-8l4-6z" fill="#FEFEFE"/>
<path transform="translate(1654,965)" d="m0 0h35l3 2-1 5-53 3-6-3-2-5 3-1z" fill="#FEFEFE"/>
<path transform="translate(1247,816)" d="m0 0m-2 1 2 1-3 6-13 11-7 4h-20l-42-4-1-2h58l8-2 6-4z" fill="#02134C"/>
<path transform="translate(733,771)" d="m0 0h18l9 3 6 7 2 7-8-6-10-4h-15l-11 4-6 5h-2l2-5 4-6 7-4z" fill="#FEFEFE"/>
<path transform="translate(1386,922)" d="m0 0 3 1-8 31-3 1-4-8v-10l8-11z" fill="#FEFEFE"/>
<path transform="translate(1345,948)" d="m0 0 5 3 10 16 12 18 3 6-4 1-4-5-6-10-11-18-5-9z" fill="#FEFEFE"/>
<path transform="translate(481,951)" d="m0 0 5 2 7 11 6 9 4 7 6 11-1 3-3-1-9-16-11-17-4-6z" fill="#FEFEFE"/>
<path transform="translate(1268,904)" d="m0 0 10 2 15 6 16 6 2 2v3l-10-3-32-12-2-1z" fill="#FEFEFE"/>
<path transform="translate(1402,898)" d="m0 0 4 1-4 4-39 17h-4v-3l16-7 9-4z" fill="#FEFEFE"/>
<path transform="translate(409,907)" d="m0 0 10 1 22 7 7 3 2 5-6-1-25-9-10-4z" fill="#FEFEFE"/>
<path transform="translate(538,903)" d="m0 0 4 2-4 3-16 6-22 9h-5l1-3 29-12z" fill="#FEFEFE"/>
<path transform="translate(1321,949)" d="m0 0h2l-1 6-13 20-10 15h-3l2-6 17-26z" fill="#FEFEFE"/>
<path transform="translate(1315,944)" d="m0 0h1v5l-11 17-11 16-5 6-1-3 6-10 10-15 9-14z" fill="#FEFEFE"/>
<path transform="translate(613,956)" d="m0 0h16l27 1v1l-10 1v2l-33-1-6-1v-2z" fill="#022166"/>
<path transform="translate(1268,896)" d="m0 0 9 2 31 12 5 5-6-1-31-12-8-4z" fill="#FEFEFE"/>
<path transform="translate(1398,891)" d="m0 0h5l-3 3-34 16-9 3 1-3 30-15z" fill="#FEFEFE"/>
<path transform="translate(533,896)" d="m0 0h6l-3 3-33 14-10 3v-3l17-7z" fill="#FEFEFE"/>
<path transform="translate(450,949)" d="m0 0h3l-2 5-14 24-6 8h-2l1-4 8-14 11-18z" fill="#FEFEFE"/>
<path transform="translate(490,951)" d="m0 0 7 6 7 10 9 15 2 4-1 4-6-9-10-16-8-12z" fill="#FEFEFE"/>
<path transform="translate(457,952)" d="m0 0h2l-1 5-10 18-10 14-1-3 8-15z" fill="#FEFEFE"/>
<path transform="translate(1355,948)" d="m0 0 6 5 10 16 6 11-1 2-4-5-7-11-10-16z" fill="#FEFEFE"/>
<path transform="translate(1327,853)" d="m0 0h3l2 7v15l-1 19-2-3v-29z" fill="#FEFEFE"/>
<path transform="translate(413,901)" d="m0 0h7l15 5 12 5 1 2-10-2-25-8z" fill="#FEFEFE"/>
<path transform="translate(1337,858)" d="m0 0h1l1 10v29h-2l-1-9v-26z" fill="#FEFEFE"/>
<path transform="translate(389,822)" d="m0 0h5l-5 5h-2v2l-8 7-8 8v-3l7-9h2l2-4z" fill="#02378E"/>
<path transform="translate(631,688)" d="m0 0 3 1 1 2-20 4-4-1 8-3z" fill="#022369"/>
<path transform="translate(293,1047)" d="m0 0h9l2 1 17 1v1h-25z" fill="#0248AD"/>
<path transform="translate(389,822)" d="m0 0h5l-5 5h-2v2l-6 1 4-5z" fill="#022B78"/>
<path transform="translate(1591,1045)" d="m0 0h12l1 2-3 1h-8z" fill="#0247AB"/>
</svg>
