<svg width="90" height="90" viewBox="0 0 90 90" fill="none" xmlns="http://www.w3.org/2000/svg">
<g clip-path="url(#clip0_9_279)">
<circle cx="45" cy="45" r="45" fill="#E6F2FF"/>
<path fill-rule="evenodd" clip-rule="evenodd" d="M30.8491 24.9137C30.8491 22.5298 32.8001 20.625 35.1724 20.625H54.8276C57.1999 20.625 59.1509 22.5298 59.1509 24.9137V34.5459H63.7069C65.7174 34.5459 67.375 36.1608 67.375 38.1871V51.1367C67.375 53.1629 65.7174 54.7779 63.7069 54.7779L59.1509 54.7779V64.0863C59.1509 66.4702 57.1999 68.375 54.8276 68.375H35.1724C32.8001 68.375 30.8491 66.4702 30.8491 64.0863V54.7779H26.2931C24.2826 54.7779 22.625 53.1629 22.625 51.1367L22.625 38.1871C22.625 36.1608 24.2826 34.5459 26.2931 34.5459H30.8491V24.9137ZM33.5991 64.0863C33.5991 64.9209 34.2882 65.625 35.1724 65.625H54.8276C55.7118 65.625 56.4009 64.9209 56.4009 64.0863V24.9137C56.4009 24.0791 55.7118 23.375 54.8276 23.375H52.0844V23.9424C52.0844 25.2535 51.0134 26.2887 49.7266 26.2887H40.5542C39.2674 26.2887 38.1964 25.2535 38.1964 23.9424V23.375H35.1724C34.2882 23.375 33.5991 24.0791 33.5991 24.9137V64.0863ZM40.9464 23.375V23.5387H49.3344V23.375H40.9464ZM30.8491 37.2959H29.4871V52.0279H30.8491V37.2959ZM26.7371 52.0279V37.2959H26.2931C25.7707 37.2959 25.375 37.7101 25.375 38.1871L25.375 51.1367C25.375 51.6136 25.7707 52.0279 26.2931 52.0279H26.7371ZM59.1509 52.0279H60.5129V37.2959H59.1509V52.0279ZM63.2629 37.2959V52.0279H63.7069C64.2293 52.0279 64.625 51.6136 64.625 51.1367V38.1871C64.625 37.7101 64.2293 37.2959 63.7069 37.2959H63.2629Z" fill="#1787FF"/>
</g>
<defs>
<clipPath id="clip0_9_279">
<rect width="90" height="90" fill="white"/>
</clipPath>
</defs>
</svg>
