<svg width="90" height="90" viewBox="0 0 90 90" fill="none" xmlns="http://www.w3.org/2000/svg">
<g clip-path="url(#clip0_9_306)">
<circle cx="45" cy="45" r="45" fill="#E6F2FF"/>
<path d="M32.55 37.0521C32.55 30.3959 38.3479 25 45.5 25C52.6521 25 58.45 30.3959 58.45 37.0521C58.45 43.6561 54.3168 51.3624 47.8681 54.1182C46.3648 54.7606 44.6352 54.7606 43.1319 54.1182C36.6832 51.3624 32.55 43.6561 32.55 37.0521Z" fill="#E6F2FF"/>
<path d="M49.2 37.95C49.2 39.9935 47.5435 41.65 45.5 41.65C43.4566 41.65 41.8 39.9935 41.8 37.95C41.8 35.9066 43.4566 34.25 45.5 34.25C47.5435 34.25 49.2 35.9066 49.2 37.95Z" fill="#E6F2FF"/>
<path fill-rule="evenodd" clip-rule="evenodd" d="M31.175 37.0521C31.175 29.5451 37.6832 23.625 45.5 23.625C53.3168 23.625 59.825 29.5451 59.825 37.0521C59.825 44.0987 55.4558 52.3709 48.4085 55.3826C46.56 56.1725 44.44 56.1725 42.5915 55.3826C35.5442 52.3709 31.175 44.0987 31.175 37.0521ZM45.5 26.375C39.0126 26.375 33.925 31.2467 33.925 37.0521C33.925 43.2135 37.8222 50.3538 43.6722 52.8538C44.8304 53.3487 46.1696 53.3487 47.3278 52.8538C53.1778 50.3538 57.075 43.2135 57.075 37.0521C57.075 31.2467 51.9874 26.375 45.5 26.375ZM45.5 35.625C44.216 35.625 43.175 36.666 43.175 37.95C43.175 39.2341 44.216 40.275 45.5 40.275C46.7841 40.275 47.825 39.2341 47.825 37.95C47.825 36.666 46.7841 35.625 45.5 35.625ZM40.425 37.95C40.425 35.1472 42.6972 32.875 45.5 32.875C48.3029 32.875 50.575 35.1472 50.575 37.95C50.575 40.7529 48.3029 43.025 45.5 43.025C42.6972 43.025 40.425 40.7529 40.425 37.95ZM29.9422 49.0521C30.452 49.615 30.4088 50.4845 29.8459 50.9942C28.7941 51.9467 28.375 52.8601 28.375 53.675C28.375 55.0958 29.721 56.84 32.9828 58.3078C36.1155 59.7175 40.5398 60.625 45.5 60.625C50.4602 60.625 54.8845 59.7175 58.0172 58.3078C61.279 56.84 62.625 55.0958 62.625 53.675C62.625 52.8601 62.2059 51.9467 61.1541 50.9942C60.5912 50.4845 60.548 49.615 61.0578 49.0521C61.5675 48.4892 62.437 48.4461 62.9999 48.9558C64.4098 50.2325 65.375 51.8317 65.375 53.675C65.375 56.852 62.5796 59.2703 59.1457 60.8156C55.5827 62.4189 50.757 63.375 45.5 63.375C40.243 63.375 35.4173 62.4189 31.8543 60.8156C28.4204 59.2703 25.625 56.852 25.625 53.675C25.625 51.8317 26.5902 50.2325 28.0001 48.9558C28.563 48.4461 29.4325 48.4892 29.9422 49.0521Z" fill="#1787FF"/>
</g>
<defs>
<clipPath id="clip0_9_306">
<rect width="90" height="90" fill="white"/>
</clipPath>
</defs>
</svg>
