<svg xmlns="http://www.w3.org/2000/svg" viewBox="0 0 48 48" id="revenue"><path d="M45.71,39.29l-3-3-1.42,1.42L42.59,39H39V17a1,1,0,0,0-1-1H34a1,1,0,0,0-1,1V39H31V21a1,1,0,0,0-1-1H26a1,1,0,0,0-1,1V39H23V26a1,1,0,0,0-1-1H18a1,1,0,0,0-1,1V39H15V32a1,1,0,0,0-1-1H10a1,1,0,0,0-1,1v7H7V11.41l1.29,1.3,1.42-1.42-3-3a1,1,0,0,0-1.42,0l-3,3,1.42,1.42L5,11.41V40a1,1,0,0,0,1,1H42.59l-1.3,1.29,1.42,1.42,3-3A1,1,0,0,0,45.71,39.29ZM11,39V33h2v6Zm8,0V27h2V39Zm8,0V22h2V39Zm8,0V18h2V39Zm0-26H33V11h4V10H34a1,1,0,0,1-1-1V6a1,1,0,0,1,1-1h1V4h2V5h2V7H35V8h3a1,1,0,0,1,1,1v3a1,1,0,0,1-1,1H37v1H35Z"></path></svg>