<svg width="30" height="30" viewBox="0 0 30 30" fill="none" xmlns="http://www.w3.org/2000/svg">
<path d="M14.9999 23.8401C10.9274 22.0913 8.26801 18.7276 7.79988 14.6626C7.67157 12.7755 7.65759 10.8825 7.75801 8.9938C9.96113 8.8063 12.6274 8.24568 14.9999 6.50818C17.3768 8.24755 20.0436 8.80818 22.2418 8.99505C22.3424 10.8951 22.328 12.7882 22.1993 14.6626C21.7324 18.7276 19.0724 22.0913 14.9999 23.8401Z" stroke="#CCCCCC" stroke-linecap="round" stroke-linejoin="round"/>
<path d="M15.0001 27.1875C20.6519 25.2394 24.6807 20.7106 25.3126 14.9444C25.4876 12.4413 25.4732 9.92877 25.2682 7.42752C25.2413 7.03327 25.0683 6.66324 24.783 6.38977C24.4977 6.1163 24.1207 5.95905 23.7257 5.94877C21.1688 5.87002 18.1969 5.44377 15.9007 3.18189C15.6609 2.94506 15.3374 2.81226 15.0004 2.81226C14.6633 2.81226 14.3399 2.94506 14.1001 3.18189C11.8032 5.44377 8.83132 5.87002 6.27507 5.94877C5.88004 5.95905 5.50304 6.1163 5.21778 6.38977C4.93252 6.66324 4.75951 7.03327 4.73257 7.42752C4.52755 9.9284 4.51251 12.4412 4.68757 14.9444C5.32007 20.7106 9.3482 25.2394 15.0001 27.1875ZM15.0001 27.1875V23.84M15.0001 6.50814V2.86439M22.2001 14.6625H25.3126" stroke="#CCCCCC" stroke-linecap="round" stroke-linejoin="round"/>
</svg>
