<svg width="149" height="156" viewBox="0 0 149 156" fill="none" xmlns="http://www.w3.org/2000/svg">
<g clip-path="url(#clip0_18_28)">
<path d="M86.2134 89.8066C81.9451 85.998 77.2161 83.0781 72.0264 81.0469C66.8366 79.0156 61.4528 78 55.875 78C51.6068 78 47.484 78.584 43.5068 79.752C39.5296 80.9199 35.8192 82.5449 32.3755 84.627C28.9318 86.709 25.8034 89.248 22.9902 92.2441C20.1771 95.2402 17.752 98.541 15.7148 102.146C13.6777 105.752 12.1014 109.637 10.9858 113.801C9.87028 117.965 9.3125 122.281 9.3125 126.75H0C0 120.656 0.848796 114.791 2.54639 109.154C4.24398 103.518 6.69336 98.3125 9.89453 93.5391C13.0957 88.7656 16.8789 84.5254 21.2441 80.8184C25.6094 77.1113 30.5566 74.1914 36.0859 72.0586C30.6051 68.3008 26.3369 63.5781 23.2812 57.8906C20.2256 52.2031 18.6735 45.9062 18.625 39C18.625 33.6172 19.5951 28.5645 21.5352 23.8418C23.4753 19.1191 26.1187 14.9805 29.4653 11.4258C32.812 7.87109 36.765 5.07812 41.3242 3.04688C45.8835 1.01563 50.7337 0 55.875 0C61.0163 0 65.8423 1.01563 70.353 3.04688C74.8638 5.07812 78.8167 7.8457 82.2119 11.3496C85.6071 14.8535 88.2747 18.9922 90.2148 23.7656C92.1549 28.5391 93.125 33.6172 93.125 39C93.125 42.3516 92.737 45.627 91.9609 48.8262C91.1849 52.0254 90.0208 55.0469 88.4688 57.8906C86.9167 60.7344 85.0978 63.3496 83.0122 65.7363C80.9266 68.123 78.4772 70.2305 75.6641 72.0586C78.8167 73.3281 81.8239 74.877 84.6855 76.7051C87.5472 78.5332 90.2391 80.5898 92.7612 82.875L86.2134 89.8066ZM27.9375 39C27.9375 43.0625 28.665 46.8457 30.1201 50.3496C31.5752 53.8535 33.5638 56.9512 36.0859 59.6426C38.6081 62.334 41.5667 64.4414 44.9619 65.9648C48.3571 67.4883 51.9948 68.25 55.875 68.25C59.7067 68.25 63.3201 67.4883 66.7153 65.9648C70.1105 64.4414 73.0692 62.3594 75.5913 59.7188C78.1134 57.0781 80.1263 53.9805 81.6299 50.4258C83.1335 46.8711 83.861 43.0625 83.8125 39C83.8125 34.9883 83.085 31.2051 81.6299 27.6504C80.1748 24.0957 78.1862 20.998 75.6641 18.3574C73.1419 15.7168 70.159 13.6094 66.7153 12.0352C63.2716 10.4609 59.6582 9.69922 55.875 9.75C51.9948 9.75 48.3813 10.5117 45.0347 12.0352C41.688 13.5586 38.7293 15.6406 36.1587 18.2812C33.5881 20.9219 31.5752 24.0449 30.1201 27.6504C28.665 31.2559 27.9375 35.0391 27.9375 39ZM125.719 58.5C128.92 58.5 131.927 59.1348 134.74 60.4043C137.553 61.6738 140.003 63.4258 142.088 65.6602C144.174 67.8945 145.847 70.4844 147.108 73.4297C148.369 76.375 149 79.5234 149 82.875C149 86.2266 148.394 89.375 147.181 92.3203C145.969 95.2656 144.295 97.8555 142.161 100.09C140.027 102.324 137.553 104.076 134.74 105.346C131.927 106.615 128.92 107.25 125.719 107.25C124.603 107.25 123.512 107.174 122.445 107.021L79.7383 151.734C78.4287 153.105 76.9251 154.146 75.2275 154.857C73.5299 155.568 71.7354 155.949 69.8438 156C67.9036 156 66.0848 155.619 64.3872 154.857C62.6896 154.096 61.2103 153.055 59.9492 151.734C58.6882 150.414 57.6938 148.865 56.9663 147.088C56.2388 145.311 55.875 143.406 55.875 141.375C55.875 139.445 56.2145 137.592 56.8936 135.814C57.5726 134.037 58.5911 132.437 59.9492 131.016L102.656 86.3027C102.51 85.1855 102.438 84.043 102.438 82.875C102.438 79.5234 103.044 76.375 104.256 73.4297C105.469 70.4844 107.118 67.9199 109.204 65.7363C111.289 63.5527 113.763 61.8008 116.625 60.4805C119.486 59.1602 122.518 58.5 125.719 58.5ZM125.719 97.5C127.659 97.5 129.478 97.1191 131.175 96.3574C132.873 95.5957 134.352 94.5547 135.613 93.2344C136.874 91.9141 137.869 90.3652 138.596 88.5879C139.324 86.8105 139.688 84.9062 139.688 82.875C139.688 80.793 139.227 78.7109 138.305 76.6289L127.683 87.75H121.062V80.8184L131.685 69.6973C129.696 68.7324 127.707 68.25 125.719 68.25C123.779 68.25 121.96 68.6309 120.262 69.3926C118.565 70.1543 117.085 71.1953 115.824 72.5156C114.563 73.8359 113.569 75.3848 112.841 77.1621C112.114 78.9395 111.75 80.8438 111.75 82.875C111.75 84.957 112.211 87.0391 113.132 89.1211L66.5698 137.947C65.6483 138.912 65.1875 140.055 65.1875 141.375C65.1875 142.695 65.6483 143.838 66.5698 144.803C67.4914 145.768 68.5827 146.25 69.8438 146.25C71.1048 146.25 72.1961 145.768 73.1177 144.803L119.753 96.0527C121.742 97.0176 123.73 97.5 125.719 97.5Z" fill="black"/>
</g>
<defs>
<clipPath id="clip0_18_28">
<rect width="149" height="156" fill="white"/>
</clipPath>
</defs>
</svg>
