<?xml version="1.0" encoding="UTF-8"?>
<svg version="1.1" viewBox="0 0 2048 1487" width="1280" height="1280" xmlns="http://www.w3.org/2000/svg">
<path transform="translate(0)" d="m0 0h2048v1487h-2048z" fill="#FEFEFE"/>
<path transform="translate(624,508)" d="m0 0 9 2 37 5 32 2h24l17-1v3l-9 10-10 10-14 10-19 12-15 11-10 9-7 10-3 10v12l4 13 6 10 4 5 10 7 8 3 6 1h20l14-3 27-10 27-12 16-8 21-11 23-13 26-14 18-10 20-9 22-8 9-2 9-1h20l14 3 20 7 18 8 20 11 38 26 25 16 59 35 20 12 22 14 41 28 19 13 42 28 25 16 21 14 18 13 11 9 10 9 24 24 9 11 9 14 9 19 4 13 2 14v14l-3 16-4 11-11 18-6 7-8 7-6 2-19-5-26-9-16-7-15-8-17-12-13-10-13-11-14-12-13-10-18-13-16-10-21-13-18-10-11-7-5 1-4 6-8 6 2 4 23 16 15 10 19 12 14 8 8 4 7 7 8 7 19 19 21 33 5 11 2 7 1 15-2 19-4 16-7 14-9 10-8 6-12 6-3 1h-23l-16-3-16-6-16-8-16-12-13-11-16-15-11-11-8-7-10-10-8-7-15-13-15-11-14-8-3 1-1 7 3 5 16 12 13 11 11 9 12 12 8 7 16 16 8 7 12 11 17 13 11 7 13 8 5 6-1 9-6 18-6 10-9 8-9 5-16 4h-16l-14-3-16-6-20-9-11-6-14-12-13-11-14-11-17-14-20-14-11-6-18-3-13-1-2 5 1 6 1 1 15 1 12 4 12 7 17 12 16 13 11 9 16 13 11 9 6 9-1 11-6 11-5 4-17 8-10 2h-16l-9-3-15-10-17-11-9-5-7 1-3 2-6-1-7-7-9-11-13-17-12-16-10-13-6-9-2-1-40-1-3-1 3-11 4-16v-10l-3-15-7-16-6-10-9-10-10-7-10-4-6-1h-22l-15 3-5-1-9-21-8-12-11-11-16-8-8-2h-17l-16 4-12 5-11 7-5 5-6 5-10-9-12-10-21-14-12-7-26-11-8-1-6 5-7 8-16 8h-3l1-35 2-23 8-39 13-57 11-49 8-31 12-40 10-35 12-36 14-40 4-15z"/>
<path transform="translate(2041,142)" d="m0 0h7v705l-14 10-21 14-22 13-25 15-17 10-20 12-27 15-17 10-26 14-29 15-33 17-14 5h-21l-13-4-15-8-14-12-13-17-12-20-14-28-11-23-5-11v-3l13-4 51-11 22-4-1-7-10-28-11-25-17-37-10-28-15-47-8-22-13-28-19-39-13-28-12-25-11-18-13-17-14-19-9-12-8-10-11-12-14-15-8-7-18-18-10-7-14-6-24-7-18-4 4-3 33-16 36-17 36-16 39-16 43-17 44-17 49-17 22-8 11-6 12-9 13-11 14-10 25-14 33-15 38-10 20-5 8-5 6-5 15-9 19-9 13-5 4-1z"/>
<path transform="translate(0,229)" d="m0 0 9 6 15 11 15 9 12 6 8 2 20 3 19 3 14 1 15 5 42 15 28 11 34 16 52 25 31 14 34 14 74 31 52 19 16 6 13 4v4l-10 16-11 17-11 18-9 16-23 47-16 34-11 26-18 48-16 42-20 53-15 39-22 58-6 22-5 26-5 21 17 2 36 7 1 5-9 25-9 19-8 14-10 16-9 13-8 10-7 7-7 8-12 11-12 12-14 16-17-8-37-16-104-43-53-23-28-11-15-6z"/>
<path transform="translate(1e3 385)" d="m0 0h33l22 4 29 8 17 4 27 5 38 8 93 20 58 14 16 2h21l21-2 24-5 16-5 11-5h4l10 37 9 26 13 37 7 23 10 36 11 38 11 47 18 79 6 25-1 4-15 14-7 8-7 7-11 9-17 16-18 13-3 2-11-9-8-8-7-8-36-36-7-8-13-12-18-13-20-12-26-16-31-21-16-11-18-13-17-12-20-14-75-50-43-29-15-10-22-14-25-13-22-8-13-3-8-1h-20l-23 5-27 9-27 12-21 11-23 13-29 16-27 14-32 15-19 7-15 5-11 1-15-3-8-5-9-10-4-9-1-11 3-8 9-10 10-8 18-12 15-9 13-11 9-9 13-17 8-14 14-22 10-13 9-10 11-8 14-6 30-9 28-8 21-7 22-9 29-14 20-9 12-3z"/>
<path transform="translate(564,910)" d="m0 0 5 1 20 10 20 12 13 10 13 11 8 7 5 4 2 6 7-10 5-8 5-5 9-6 11-4 15-4h9l12 4 10 7 8 8 8 14 6 14 4 16 11-4 10-5 10-2h13l13 3 9 6 5 4 7 10 6 13 3 11v18l-5 16-9 15-4 6 21-1 19 2 14 5 16 8 10 9 10 14 12 16 11 12 3 6-14 7-20 6-9 2h-13l-16-3-8-7-9-13-9-9-14-10-17-9-44-11-8-6-10-10-7-11-3-9-2-17-1-17-11 9-10 7-9 4h-7l-17-4-16-8-14-8-3-5-3-14-3-26-1-19-17 6-7 2h-13l-19-5-21-10-3-6-2-11z" fill="#010101"/>
<path transform="translate(1752,850)" d="m0 0h1l4 13 12 36 11 40 9 44v10l1 2-7 2h-21l-13-4-15-8-14-12-13-17-12-20-14-28-11-23-5-11v-3l13-4 51-11 22-4z" fill="#5E5E5E"/>
<path transform="translate(305,917)" d="m0 0 17 2 36 7 1 5-9 25-9 19-8 14-15 24-3-1-2 5-6 4-3 4h-2v2h-2v2h-2l-2 5-8 10-3 3h-3l-1-2v-8l7-36z" fill="#5E5E5E"/>
<path transform="translate(564,910)" d="m0 0 5 1 20 10 20 12 13 10 13 11 8 7 5 4 2 8-2 4-16 6-10 3h-13l-19-5-21-10-3-6-2-11z" fill="#020202"/>
<path transform="translate(1842,872)" d="m0 0h18l7 4 7 8 2 6v11l-4 10-7 7-7 3h-11l-9-3-6-4-6-7-2-5v-10l5-10 4-5 6-4z" fill="#5F5F5F"/>
<path transform="translate(212,947)" d="m0 0h7l9 3 9 8 3 6v16l-6 10-8 5-4 1h-15l-10-5-5-6-4-8v-9l5-10 8-7 6-3z" fill="#5F5F5F"/>
<path transform="translate(315,1012)" d="m0 0h2l-2 5-9 11-7 7-7 8-7 5 2-4 8-10 3-5h2v-2h2v-2h2l2-4 5-4h2z" fill="#0F0F0F"/>
<path transform="translate(352,926)" d="m0 0h6l1 5h-3l-4-4z" fill="#0E0E0E"/>
</svg>
