<svg width="90" height="90" viewBox="0 0 90 90" fill="none" xmlns="http://www.w3.org/2000/svg">
<g clip-path="url(#clip0_9_309)">
<circle cx="45" cy="45" r="45" fill="#E6F2FF"/>
<path fill-rule="evenodd" clip-rule="evenodd" d="M47.1826 23.3987C46.9263 23.3762 46.6705 23.375 46 23.375C41.4825 23.375 38.2337 23.378 35.7604 23.7128C33.3276 24.0421 31.8516 24.6695 30.7581 25.7705C30.3236 26.208 29.8776 27.0839 29.5041 28.5115C29.1409 29.8998 28.8886 31.6384 28.7177 33.6223C28.376 37.5911 28.375 42.344 28.375 46.8696C28.375 51.4173 28.3779 54.6907 28.7107 57.1832C29.0384 59.6372 29.6632 61.1271 30.7581 62.2295C31.8516 63.3306 33.3276 63.9579 35.7604 64.2872C38.2337 64.622 41.4825 64.625 46 64.625C50.5175 64.625 53.7663 64.622 56.2396 64.2872C58.6724 63.9579 60.1484 63.3306 61.2419 62.2295C62.3368 61.1271 62.9616 59.6372 63.2893 57.1832C63.6221 54.6907 63.625 51.4173 63.625 46.8696C63.625 46.1949 63.6239 45.936 63.6013 45.6764L63.5992 45.6519C63.5303 44.8567 63.3442 42.7102 63.0558 40.6141C62.9096 39.5524 62.7409 38.5315 62.5541 37.7177C62.4605 37.3098 62.368 36.9792 62.2803 36.7331C62.2014 36.5113 62.1516 36.4318 62.1531 36.4308C62.1532 36.4308 62.1529 36.4306 62.1531 36.4308C61.99 36.2367 61.8024 36.046 61.3275 35.5678L51.5114 25.6844C51.0255 25.1951 50.8382 25.0082 50.6408 24.8414C49.6745 24.0247 48.4369 23.509 47.1826 23.3987ZM46.0586 20.625C46.6518 20.625 47.0328 20.6249 47.4234 20.6593C49.2445 20.8193 51.0177 21.5593 52.4159 22.7411C52.7158 22.9945 52.9904 23.271 53.4196 23.7032L63.2787 33.6299L63.3214 33.673C63.7509 34.1053 64.0254 34.3818 64.2771 34.6836C64.5622 35.0256 64.7457 35.4587 64.871 35.8105C65.0079 36.195 65.1279 36.6386 65.2344 37.1024C65.4478 38.0321 65.6295 39.1449 65.7801 40.2392C66.078 42.4042 66.2689 44.6062 66.3383 45.4073L66.3411 45.4388C66.3751 45.8309 66.375 46.2133 66.375 46.8114V46.9744C66.375 51.3946 66.375 54.8516 66.0151 57.5472C65.6471 60.3027 64.8807 62.4681 63.1931 64.1674C61.5042 65.8679 59.3497 66.6413 56.6085 67.0124C53.9294 67.375 50.4945 67.375 46.1061 67.375H45.8939C41.5055 67.375 38.0706 67.375 35.3915 67.0124C32.6503 66.6413 30.4958 65.8679 28.8069 64.1674C27.1193 62.4681 26.3529 60.3027 25.9849 57.5472C25.625 54.8516 25.625 51.3947 25.625 46.9744L25.625 46.831C25.625 42.349 25.625 37.4849 25.9779 33.3864C26.1549 31.3308 26.4243 29.4184 26.8436 27.8154C27.2527 26.2517 27.8501 24.796 28.8069 23.8327C30.4958 22.1321 32.6503 21.3587 35.3915 20.9876C38.0706 20.625 41.5055 20.625 45.8939 20.625L46.0586 20.625ZM44.9789 45.4946H47.0211C48.2948 45.4945 49.3546 45.4945 50.2119 45.5823C51.1086 45.6742 51.9354 45.8734 52.6787 46.3735C53.2438 46.7537 53.7284 47.2419 54.1053 47.8097C54.6 48.5553 54.7971 49.3837 54.888 50.2837C54.9751 51.1455 54.975 52.2114 54.975 53.4949V53.6355C54.975 54.9191 54.9751 55.9849 54.888 56.8467C54.7971 57.7467 54.6 58.5752 54.1053 59.3207C53.7284 59.8886 53.2438 60.3767 52.6787 60.7569C51.9354 61.257 51.1086 61.4563 50.2119 61.5481C49.3546 61.6359 48.2948 61.6359 47.021 61.6359H44.979C43.7052 61.6359 42.6454 61.6359 41.7881 61.5481C40.8914 61.4563 40.0646 61.257 39.3213 60.7569C38.7562 60.3767 38.2716 59.8886 37.8947 59.3207C37.4 58.5752 37.2029 57.7467 37.112 56.8467C37.0249 55.9849 37.025 54.9191 37.025 53.6356V53.4949C37.025 52.2114 37.0249 51.1455 37.112 50.2837C37.2029 49.3837 37.4 48.5553 37.8947 47.8097C38.2716 47.2419 38.7562 46.7537 39.3213 46.3735C40.0646 45.8734 40.8914 45.6742 41.7881 45.5823C42.6454 45.4945 43.7052 45.4945 44.9789 45.4946ZM42.0683 48.318C41.3911 48.3874 41.0715 48.5105 40.8564 48.6552C40.5917 48.8333 40.3638 49.0626 40.1861 49.3303C40.0404 49.5498 39.9173 49.8755 39.8481 50.5602C39.7766 51.2673 39.775 52.1934 39.775 53.5652C39.775 54.937 39.7766 55.8631 39.8481 56.5703C39.9173 57.2549 40.0404 57.5807 40.1861 57.8002C40.3638 58.0679 40.5917 58.2971 40.8564 58.4752C41.0715 58.6199 41.3911 58.7431 42.0683 58.8124C42.6934 58.8765 43.4918 58.8847 44.625 58.8857V48.2447C43.4918 48.2457 42.6934 48.254 42.0683 48.318ZM47.375 48.2447V52.1902H52.2206C52.2138 51.5255 52.1964 51.0004 52.1519 50.5602C52.0827 49.8755 51.9596 49.5498 51.8139 49.3303C51.6362 49.0626 51.4083 48.8333 51.1436 48.6552C50.9285 48.5105 50.6089 48.3874 49.9317 48.318C49.3066 48.254 48.5082 48.2457 47.375 48.2447ZM52.2206 54.9402H47.375V58.8857C48.5082 58.8847 49.3066 58.8765 49.9317 58.8124C50.6089 58.7431 50.9285 58.6199 51.1436 58.4752C51.4083 58.2971 51.6362 58.0679 51.8139 57.8002C51.9596 57.5807 52.0827 57.2549 52.1519 56.5703C52.1964 56.13 52.2138 55.6049 52.2206 54.9402Z" fill="#1787FF"/>
</g>
<defs>
<clipPath id="clip0_9_309">
<rect width="90" height="90" fill="white"/>
</clipPath>
</defs>
</svg>
