<svg width="90" height="90" viewBox="0 0 90 90" fill="none" xmlns="http://www.w3.org/2000/svg">
<g clip-path="url(#clip0_9_312)">
<circle cx="45" cy="45" r="45" fill="#E6F2FF"/>
<path fill-rule="evenodd" clip-rule="evenodd" d="M25.0556 23.7576C25.5356 23.53 26.1038 23.5993 26.515 23.9356L47.7201 41.275C48.0395 41.5362 48.2247 41.9269 48.2247 42.3395V46.414H49.6164V35.5688C49.6164 33.9047 50.7709 31.8819 52.9793 31.8819H61.4273L61.4282 33.2569C62.3685 32.2537 62.3686 32.2538 62.3688 32.2539L62.3946 32.2782L62.4673 32.3467C62.5305 32.4064 62.6227 32.4937 62.7397 32.6052C62.9738 32.8282 63.3074 33.1481 63.7074 33.5374C64.5065 34.3152 65.5751 35.3743 66.6462 36.4939C67.7126 37.6085 68.8029 38.8052 69.6344 39.8538C70.0482 40.3757 70.4214 40.8902 70.698 41.3584C70.8364 41.5927 70.9653 41.84 71.0628 42.0891C71.1546 42.3239 71.2522 42.6437 71.2522 43C71.2522 43.5024 71.2538 43.9744 71.2564 44.4223C71.3326 44.5932 71.375 44.7825 71.375 44.9817C71.375 45.1731 71.3359 45.3553 71.2652 45.5209C71.2705 46.0551 71.2768 46.5572 71.2829 47.0405C71.3088 49.1136 71.3304 50.8418 71.2514 53.283C71.228 54.0066 71.0791 54.8905 70.6237 55.6404C70.1227 56.4654 69.2589 57.0906 68.0548 57.0906H66.8025C66.167 60.1113 63.48 62.375 60.2686 62.375C57.0571 62.375 54.3702 60.1113 53.7347 57.0906H40.6274C39.9919 60.1113 37.305 62.375 34.0935 62.375C30.8821 62.375 28.1951 60.1113 27.5597 57.0906H23.988C22.8554 57.0906 21.9739 56.5089 21.4204 55.7564C20.8842 55.0276 20.625 54.1139 20.625 53.2385V47.7895C20.625 47.0302 21.2406 46.414 22 46.414H37.3572V42.8001L27.0196 29.1041V35.012C27.0455 35.0315 27.0649 35.0455 27.0879 35.0608C27.6137 35.411 28.0241 35.9092 28.2666 36.4928C28.5092 37.0766 28.5727 37.7191 28.449 38.3391C28.3253 38.959 28.0201 39.5278 27.5726 39.9739C27.1252 40.4199 26.5556 40.7232 25.9362 40.846C25.3169 40.9688 24.6749 40.9058 24.0912 40.6648C23.5074 40.4238 23.0078 40.0153 22.656 39.4904C22.3041 38.9655 22.116 38.3478 22.116 37.7156C22.116 36.9562 22.7316 36.3406 23.491 36.3406C24.2504 36.3406 24.866 36.9562 24.866 37.7156C24.866 37.802 24.8916 37.8867 24.9402 37.9592C24.9889 38.0318 25.0585 38.089 25.1407 38.1229C25.223 38.1569 25.3138 38.1659 25.4014 38.1485C25.489 38.1311 25.5689 38.0883 25.6311 38.0263C25.6934 37.9642 25.7353 37.8857 25.7522 37.8009C25.7691 37.7161 25.7605 37.6282 25.7272 37.5481C25.6938 37.4679 25.6371 37.3987 25.5635 37.3496C25.5142 37.3168 25.4697 37.2855 25.431 37.2574C25.1455 37.2125 24.8793 37.0783 24.6724 36.8714C24.4145 36.6135 24.2696 36.2638 24.2696 35.8991V25C24.2696 24.4688 24.5756 23.9851 25.0556 23.7576ZM33.6468 33.3196L45.4747 42.9913V46.414H40.1072V42.3395C40.1072 42.0405 40.0097 41.7497 39.8296 41.5111L33.6468 33.3196ZM35.2961 49.164C37.9583 49.6472 40.0732 51.706 40.6274 54.3406H49.6164V49.164H35.2961ZM52.3664 47.789V54.3406H53.7347C54.3702 51.3199 57.0571 49.0562 60.2686 49.0562C63.48 49.0562 66.167 51.3199 66.8025 54.3406H68.0548C68.1092 54.3406 68.1413 54.3342 68.1568 54.33C68.1718 54.326 68.1792 54.3221 68.1836 54.3195C68.1898 54.3157 68.2241 54.2938 68.2732 54.213C68.3879 54.0241 68.4875 53.6695 68.5029 53.1941C68.5801 50.8076 68.5593 49.175 68.5337 47.1516C68.5304 46.8937 68.5271 46.6296 68.5238 46.3567H59.2746C58.3872 46.3567 57.3852 46.1436 56.621 45.3701C55.8613 44.6012 55.5803 43.5245 55.5803 42.3395V38.3762C55.5803 37.2355 56.2311 36.4273 56.9712 35.9669C57.677 35.5278 58.5231 35.3498 59.2746 35.3498H61.6264C61.3265 35.0589 61.0721 34.8148 60.8802 34.6319H52.9793C52.852 34.6319 52.7294 34.6806 52.6063 34.8326C52.4701 35.0007 52.3664 35.2677 52.3664 35.5688V47.789ZM64.3754 38.0998H59.2746C58.9131 38.0998 58.5995 38.1926 58.4238 38.3019C58.3683 38.3365 58.3412 38.3633 58.3303 38.3759C58.3303 38.376 58.3303 38.3758 58.3303 38.3759V42.3395C58.3303 43.1361 58.5212 43.3805 58.5773 43.4373C58.6288 43.4895 58.7865 43.6067 59.2746 43.6067H68.5029C68.5025 43.4389 68.5022 43.2674 68.5022 43.092C68.502 43.0916 68.5019 43.0913 68.5017 43.0909C68.4754 43.0237 68.4228 42.9138 68.3302 42.757C68.1447 42.443 67.8579 42.0395 67.4796 41.5625C66.7269 40.6132 65.705 39.4882 64.6592 38.395C64.5645 38.2961 64.4699 38.1976 64.3754 38.0998ZM64.0782 54.7663C63.6525 53.0682 62.1112 51.8062 60.2686 51.8062C58.096 51.8062 56.3423 53.5606 56.3423 55.7156C56.3423 57.8706 58.096 59.625 60.2686 59.625C62.1112 59.625 63.6525 58.363 64.0782 56.665C63.8426 56.4181 63.6979 56.0838 63.6979 55.7156C63.6979 55.3474 63.8426 55.0131 64.0782 54.7663ZM37.9781 55.1442C37.7006 53.2589 36.0705 51.8062 34.0935 51.8062C32.1943 51.8062 30.6152 53.1469 30.2479 54.9239C30.4058 55.1477 30.4986 55.4208 30.4986 55.7156C30.4986 56.0104 30.4058 56.2835 30.2479 56.5074C30.6152 58.2843 32.1943 59.625 34.0935 59.625C36.0705 59.625 37.7006 58.1723 37.9781 56.287C37.8985 56.113 37.8541 55.9195 37.8541 55.7156C37.8541 55.5117 37.8985 55.3182 37.9781 55.1442ZM27.5597 54.3406C28.1139 51.706 30.2287 49.6472 32.891 49.164H23.375L23.375 53.2385C23.375 53.602 23.4884 53.9269 23.6355 54.1268C23.7652 54.3032 23.8778 54.3406 23.988 54.3406H27.5597ZM61.4282 33.2569L62.3688 32.2539C62.1139 32.015 61.7766 31.8819 61.4273 31.8819L61.4282 33.2569Z" fill="#1787FF"/>
</g>
<defs>
<clipPath id="clip0_9_312">
<rect width="90" height="90" fill="white"/>
</clipPath>
</defs>
</svg>
