<svg width="90" height="90" viewBox="0 0 90 90" fill="none" xmlns="http://www.w3.org/2000/svg">
<g clip-path="url(#clip0_9_300)">
<circle cx="45" cy="45" r="45" fill="#E6F2FF"/>
<path fill-rule="evenodd" clip-rule="evenodd" d="M45 28.375C44.3374 28.375 43.8553 28.8915 43.8553 29.4615C43.8553 30.0315 44.3374 30.5481 45 30.5481C45.6626 30.5481 46.1447 30.0315 46.1447 29.4615C46.1447 28.8915 45.6626 28.375 45 28.375ZM41.1053 29.4615C41.1053 27.3126 42.8795 25.625 45 25.625C47.1205 25.625 48.8947 27.3126 48.8947 29.4615C48.8947 30.1375 48.7192 30.7678 48.4125 31.3143C52.137 31.985 55.6 33.7443 58.3213 36.4028C61.5285 39.5359 63.4672 43.6863 63.8029 48.0865H65C65.7594 48.0865 66.375 48.7021 66.375 49.4615V55C66.375 55.7594 65.7594 56.375 65 56.375H25C24.2406 56.375 23.625 55.7594 23.625 55V49.4615C23.625 48.7021 24.2406 48.0865 25 48.0865H26.1971C26.5328 43.6863 28.4715 39.5359 31.6787 36.4028C34.4 33.7443 37.863 31.985 41.5875 31.3143C41.2808 30.7678 41.1053 30.1375 41.1053 29.4615ZM26.375 50.8365V53.625H63.625V50.8365H26.375ZM61.0435 48.0865H28.9565C29.2857 44.4352 30.9181 40.9903 33.6004 38.3699C36.6184 35.4215 40.7184 33.7596 45 33.7596C49.2816 33.7596 53.3816 35.4215 56.3996 38.3699C59.0819 40.9903 60.7143 44.4352 61.0435 48.0865Z" fill="#1787FF"/>
</g>
<defs>
<clipPath id="clip0_9_300">
<rect width="90" height="90" fill="white"/>
</clipPath>
</defs>
</svg>
