<svg width="90" height="90" viewBox="0 0 90 90" fill="none" xmlns="http://www.w3.org/2000/svg">
<g clip-path="url(#clip0_9_303)">
<circle cx="45" cy="45" r="45" fill="#E6F2FF"/>
<path fill-rule="evenodd" clip-rule="evenodd" d="M55.3319 31.4827C52.0596 30.0802 48.5323 29.3627 44.972 29.3752C41.4122 29.3876 37.8942 30.13 34.6316 31.5554C31.3693 32.9806 28.4336 35.0592 26.0056 37.6629C25.4877 38.2183 24.6176 38.2487 24.0623 37.7308C23.5069 37.2129 23.4765 36.3428 23.9944 35.7874C26.6786 32.909 29.9241 30.611 33.5307 29.0354C37.137 27.4598 41.0264 26.6389 44.9624 26.6252C48.8982 26.6114 52.7976 27.4046 56.4152 28.955C60.0329 30.5056 63.2949 32.7822 65.999 35.6417C66.5208 36.1934 66.4965 37.0637 65.9448 37.5855C65.393 38.1072 64.5228 38.083 64.001 37.5312C61.5547 34.9444 58.6039 32.8851 55.3319 31.4827ZM51.7276 39.8881C49.6035 38.9778 47.3167 38.5121 45.006 38.5202C42.6954 38.5283 40.4111 39.0095 38.2937 39.9346L37.7432 38.6746L38.2937 39.9346C36.1761 40.8598 34.2706 42.2088 32.6947 43.8988C32.1768 44.4542 31.3067 44.4845 30.7513 43.9666C30.196 43.4487 30.1656 42.5787 30.6835 42.0233C32.5157 40.0584 34.731 38.4902 37.1926 37.4146L37.1927 37.4146C39.6545 36.339 42.3102 35.7796 44.9964 35.7702C47.6831 35.7608 50.3419 36.3023 52.8109 37.3605L52.8109 37.3605C55.2799 38.4188 57.5072 39.9718 59.3533 41.9239C59.8751 42.4756 59.8508 43.3459 59.2991 43.8677C58.7474 44.3895 57.8771 44.3652 57.3553 43.8134C55.7675 42.1345 53.8517 40.7986 51.7276 39.8881ZM49.0265 48.4784C47.7639 47.9372 46.4037 47.6604 45.0301 47.6653C43.6558 47.6701 42.2965 47.956 41.038 48.5057C39.7791 49.0558 38.6462 49.8579 37.7093 50.8627C37.1914 51.4181 36.3214 51.4485 35.766 50.9306C35.2106 50.4127 35.1801 49.5427 35.698 48.9873C36.8912 47.7076 38.3338 46.6862 39.9369 45.9857L39.9371 45.9857C41.5405 45.2853 43.2713 44.9214 45.0204 44.9153C46.7698 44.9091 48.502 45.2616 50.11 45.9508C51.7177 46.6399 53.1679 47.6511 54.37 48.9224C54.8918 49.4742 54.8675 50.3444 54.3157 50.8662C53.7639 51.3879 52.8937 51.3636 52.3719 50.8118C51.4282 49.8138 50.2894 49.0197 49.0265 48.4784ZM45.065 56.8103C44.5617 56.8103 44.1538 57.2182 44.1538 57.7215C44.1538 58.2248 44.5617 58.6328 45.065 58.6328C45.5683 58.6328 45.9763 58.2248 45.9763 57.7215C45.9763 57.2182 45.5683 56.8103 45.065 56.8103ZM41.4038 57.7215C41.4038 55.6994 43.0429 54.0603 45.065 54.0603C47.0871 54.0603 48.7263 55.6994 48.7263 57.7215C48.7263 59.7436 47.0871 61.3828 45.065 61.3828C43.0429 61.3828 41.4038 59.7436 41.4038 57.7215Z" fill="#1787FF"/>
</g>
<defs>
<clipPath id="clip0_9_303">
<rect width="90" height="90" fill="white"/>
</clipPath>
</defs>
</svg>
